<?xml version="1.0" encoding="UTF-8" standalone="no"?>
<!-- Created with Inkscape (http://www.inkscape.org/) -->

<svg
   xmlns:dc="http://purl.org/dc/elements/1.1/"
   xmlns:cc="http://creativecommons.org/ns#"
   xmlns:rdf="http://www.w3.org/1999/02/22-rdf-syntax-ns#"
   xmlns:svg="http://www.w3.org/2000/svg"
   xmlns="http://www.w3.org/2000/svg"
   xmlns:sodipodi="http://sodipodi.sourceforge.net/DTD/sodipodi-0.dtd"
   xmlns:inkscape="http://www.inkscape.org/namespaces/inkscape"
   width="200mm"
   height="130mm"
   viewBox="0 0 200 130"
   version="1.1"
   id="svg949"
   inkscape:version="0.92.3 (2405546, 2018-03-11)"
   sodipodi:docname="TreeCount.svg">
  <defs
     id="defs943">
    <inkscape:perspective
       sodipodi:type="inkscape:persp3d"
       inkscape:vp_x="23.977864 : 256.40038 : 1"
       inkscape:vp_y="0 : 999.99995 : 0"
       inkscape:vp_z="139.51334 : 211.95865 : 1"
       inkscape:persp3d-origin="36.3737 : 111.40234 : 1"
       id="perspective951" />
  </defs>
  <sodipodi:namedview
     id="base"
     pagecolor="#ffffff"
     bordercolor="#666666"
     borderopacity="1.0"
     inkscape:pageopacity="0.0"
     inkscape:pageshadow="2"
     inkscape:zoom="0.64"
     inkscape:cx="228.59405"
     inkscape:cy="571.36901"
     inkscape:document-units="mm"
     inkscape:current-layer="layer1"
     showgrid="false"
     inkscape:window-width="1920"
     inkscape:window-height="1011"
     inkscape:window-x="0"
     inkscape:window-y="0"
     inkscape:window-maximized="1" />
  <metadata
     id="metadata946">
    <rdf:RDF>
      <cc:Work
         rdf:about="">
        <dc:format>image/svg+xml</dc:format>
        <dc:type
           rdf:resource="http://purl.org/dc/dcmitype/StillImage" />
        <dc:title></dc:title>
      </cc:Work>
    </rdf:RDF>
  </metadata>
  <g
     inkscape:label="Laag 1"
     inkscape:groupmode="layer"
     id="layer1"
     transform="translate(0,-167)">
    <g
       id="g1489"
       transform="matrix(0.96179602,0,0,0.92845633,-1.1191002,128.47811)">
      <path
         inkscape:transform-center-y="-9.1548066"
         inkscape:transform-center-x="9.1548057"
         d="M 123.06545,164.82438 40.926057,177.83398 3.1707214,103.73496 61.976035,44.929648 136.07505,82.684983 Z"
         inkscape:randomized="0"
         inkscape:rounded="0"
         inkscape:flatsided="true"
         sodipodi:arg2="1.4137167"
         sodipodi:arg1="0.78539816"
         sodipodi:r2="35.371452"
         sodipodi:r1="70.742905"
         sodipodi:cy="114.80159"
         sodipodi:cx="73.042664"
         sodipodi:sides="5"
         id="path969"
         style="fill:#666666;fill-opacity:1;stroke:none;stroke-width:0.46499997;stroke-miterlimit:4;stroke-dasharray:none;stroke-opacity:1"
         sodipodi:type="star" />
      <path
         transform="matrix(0.94721146,0,0,0.95381003,-5.3722441,-5.862464)"
         inkscape:transform-center-y="-8.7319464"
         inkscape:transform-center-x="8.6715372"
         d="M 134.41688,176.50857 52.277482,189.51817 14.522147,115.41915 73.32746,56.613837 147.42648,94.369172 Z"
         inkscape:randomized="0"
         inkscape:rounded="0"
         inkscape:flatsided="true"
         sodipodi:arg2="1.4137167"
         sodipodi:arg1="0.78539816"
         sodipodi:r2="35.371452"
         sodipodi:r1="70.742905"
         sodipodi:cy="126.48578"
         sodipodi:cx="84.394089"
         sodipodi:sides="5"
         id="path969-3"
         style="fill:#f9f9f9;fill-opacity:1;stroke:none;stroke-width:0.46499997;stroke-miterlimit:4;stroke-dasharray:none;stroke-opacity:1"
         sodipodi:type="star" />
      <g
         id="g1344"
         transform="matrix(2.1416137,0,0,2.1738025,42.18524,58.952445)">
        <path
           inkscape:connector-curvature="0"
           id="path1142"
           d="M 0,0.5 V 0 H 0.5 1 1.5 2 2.5 3 3.5 4 4.5 5 5.5 6 6.5 7 7.5 8 8.5 9 9.5 10 10.5 11 11.5 12 V 0.5 Q 12,1 11.5,1 11,1 10.5,1 10,1 9.5,1 9,1 8.5,1 H 8 7.5 Q 7,1 6.625,1.125 6.25,1.25 6,1.5 5.75,1.75 5.375,1.875 L 5,2 4.625,2.125 Q 4.25,2.25 4,2.5 3.75,2.75 3.5,3 3.25,3.25 3.125,3.625 L 3,4 V 4.5 Q 3,5 3,5.5 3,6 2.875,6.375 2.75,6.75 2.5,7 2.25,7.25 2.125,7.625 2,8 1.875,8.375 1.75,8.75 1.5,9 1.25,9.25 1.125,9.625 1,10 1,10.5 1,11 0.875,11.375 0.75,11.75 0.375,11.875 L 0,12 V 11.5 11 10.5 10 9.5 9 8.5 8 7.5 7 6.5 6 5.5 5 4.5 4 3.5 3 2.5 2 1.5 1 0.5"
           style="fill:#000000;fill-opacity:0" />
        <path
           inkscape:connector-curvature="0"
           id="path1144"
           d="M 12,0.5 V 0 h 0.5 0.5 0.5 0.5 0.5 0.5 l 0.125,0.375 q 0.125,0.375 0.5,0.5 Q 16,1 16.5,1 q 0.5,0 1,0 0.5,0 0.875,0.125 0.375,0.125 0.5,0.5 L 19,2 H 18.5 Q 18,2 17.5,2 17,2 16.5,2 16,2 15.5,2 H 15 L 14.875,1.625 Q 14.75,1.25 14.375,1.125 14,1 13.5,1 13,1 12.4375,0.9375 L 11.875,0.875 11.8125,0.9375 11.75,1 11.875,0.875 Q 12,0.75 12,0.5 V 0.25 0.625 1 0.5"
           style="fill:#06ab1e;fill-opacity:1" />
        <path
           inkscape:connector-curvature="0"
           id="path1146"
           d="M 15.125,0.375 15,0 H 15.5 16 16.5 17 17.5 18 18.5 19 19.5 20 20.5 21 21.5 22 22.5 23 23.5 24 24.5 25 25.5 26 26.5 27 27.5 28 28.5 29 29.5 30 30.5 31 31.5 32 V 0.5 1 1.5 2 2.5 3 3.5 4 4.5 5 5.5 6 6.5 7 7.5 8 8.5 9 9.5 10 10.5 11 11.5 12 12.5 13 13.5 14 14.5 15 15.5 16 16.5 17 17.5 18 18.5 19 19.5 20 20.5 21 21.5 22 22.5 23 23.5 24 24.5 25 25.5 26 26.5 27 27.5 28 28.5 29 29.5 30 30.5 31 31.5 32 32.5 33 33.5 34 34.5 35 35.5 36 36.5 37 37.5 38 38.5 39 39.5 40 40.5 41 41.5 42 42.5 43 43.5 44 44.5 45 45.5 46 46.5 47 47.5 48 H 31.5 31 30.5 30 29.5 29 28.5 28 27.5 27 26.5 26 25.5 25 24.5 24 23.5 23 V 47.5 Q 23,47 22.875,46.625 22.75,46.25 22.375,46.125 22,46 21.625,45.875 21.25,45.75 21,45.5 20.75,45.25 20.5,45 20.25,44.75 20,44.5 19.75,44.25 19.5,44 19.25,43.75 19.25,43.5 19.25,43.25 19.5,43 19.75,42.75 19.875,42.375 20,42 19.875,41.625 19.75,41.25 19.5,41 19.25,40.75 19.125,40.375 19,40 19,39.5 19,39 19.125,38.625 19.25,38.25 19.5,38 19.75,37.75 19.875,37.375 20,37 19.875,36.625 19.75,36.25 19.5,36 19.25,35.75 19,35.5 18.75,35.25 18.5,35 18.25,34.75 18.125,34.375 18,34 18,33.5 18,33 18,32.5 18,32 18.125,31.625 18.25,31.25 18.5,31 18.75,30.75 19,30.5 19.25,30.25 19.5,30 19.75,29.75 19.875,29.375 20,29 20,28.5 q 0,-0.5 0,-1 0,-0.5 0,-1 0,-0.5 0.5,-0.5 0.5,0 1,0 0.5,0 0.875,0.125 0.375,0.125 0.5,0.5 Q 23,27 23,27.5 q 0,0.5 0.125,0.875 0.125,0.375 0.5,0.5 Q 24,29 24.5,29 q 0.5,0 0.875,-0.125 0.375,-0.125 0.5,-0.5 Q 26,28 26,27.5 q 0,-0.5 0.125,-0.875 0.125,-0.375 0.5,-0.5 L 27,26 l 0.375,0.125 q 0.375,0.125 0.5,0.5 Q 28,27 28,27.5 q 0,0.5 0.125,0.875 0.125,0.375 0.5,0.5 0.375,0.125 0.75,0 0.375,-0.125 0.5,-0.5 Q 30,28 30,27.5 30,27 30.125,26.625 30.25,26.25 30.5,26 30.75,25.75 30.875,25.375 31,25 30.875,24.625 30.75,24.25 30.5,24 q -0.25,-0.25 -0.25,-0.5 0,-0.25 0.25,-0.5 0.25,-0.25 0.375,-0.625 L 31,22 V 21.5 21 L 30.875,20.625 Q 30.75,20.25 30.5,20 30.25,19.75 30,19.5 29.75,19.25 29.5,19 29.25,18.75 29.25,18.5 29.25,18.25 29.5,18 29.75,17.75 29.875,17.375 30,17 30.125,16.625 30.25,16.25 30.5,16 q 0.25,-0.25 0.25,-0.5 0,-0.25 -0.375,-0.375 Q 30,15 30,14.5 30,14 30.125,13.625 30.25,13.25 30.5,13 q 0.25,-0.25 0.25,-0.5 0,-0.25 -0.375,-0.375 Q 30,12 29.875,11.625 29.75,11.25 29.375,11.125 29,11 28.875,10.625 28.75,10.25 28.375,10.125 28,10 27.5,10 H 27 V 9.5 Q 27,9 27,8.5 27,8 27,7.5 27,7 26.875,6.625 26.75,6.25 26.5,6 26.25,5.75 26,5.5 25.75,5.25 25.375,5.125 25,5 24.625,4.875 24.25,4.75 24,4.5 23.75,4.25 23.5,4 23.25,3.75 23,3.5 22.75,3.25 22.375,3.125 22,3 21.5,3 21,3 20.5,3 20,3 19.625,2.875 19.25,2.75 19.125,2.375 L 19,2 18.875,1.625 Q 18.75,1.25 18.375,1.125 18,1 17.5,1 17,1 16.5,1 16,1 15.625,0.875 15.25,0.75 15.125,0.375"
           style="fill:#000000;fill-opacity:0" />
        <path
           inkscape:connector-curvature="0"
           id="path1148"
           d="M 6,1.5 Q 6.25,1.25 6.625,1.125 7,1 7.5,1 H 8 V 1.5 2 L 7.625,2.125 7.25,2.25 7.53125,2.15625 7.8125,2.0625 7.625,2.125 Q 7.4375,2.1875 7.3125,2.3125 L 7.1875,2.4375 7.25,2.375 7.3125,2.3125 7.03125,2.03125 Q 6.75,1.75 6.5,2 6.25,2.25 5.984375,1.984375 L 5.71875,1.71875 5.640625,1.765625 5.5625,1.8125 5.71875,1.71875 Q 5.875,1.625 6,1.5 L 6.125,1.375 5.9375,1.5625 5.75,1.75 6,1.5"
           style="fill:#06ab1e;fill-opacity:1" />
        <path
           inkscape:connector-curvature="0"
           id="path1150"
           d="M 8,1.5 V 1 h 0.5 q 0.5,0 1,0 0.5,0 1,0 H 11 L 10.875,1.375 Q 10.75,1.75 10.5,2 10.25,2.25 10.125,2.625 10,3 10.125,3.375 L 10.25,3.75 10.15625,3.46875 10.0625,3.1875 10.125,3.375 q 0.0625,0.1875 0.15625,0.28125 L 10.375,3.75 10.328125,3.703125 10.28125,3.65625 10,4 9.71875,4.34375 9.765625,4.390625 9.8125,4.4375 9.71875,4.34375 Q 9.625,4.25 9.5,4.25 H 9.375 9.5625 9.75 9.5 Q 9.25,4.25 8.96875,3.96875 L 8.6875,3.6875 8.625,3.75 8.5625,3.8125 8.6875,3.6875 Q 8.8125,3.5625 8.875,3.375 L 8.9375,3.1875 8.84375,3.46875 8.75,3.75 8.875,3.375 Q 9,3 8.875,2.625 8.75,2.25 8.375,2.125 L 8,2 V 1.5 M 11.125,1 H 11 10.625 10.25 10.5 q 0.25,0 0.5,0 h 0.25 -0.125"
           style="fill:#03a81e;fill-opacity:1" />
        <path
           inkscape:connector-curvature="0"
           id="path1152"
           d="M 10.875,1.375 11,1 H 11.5 12 11.625 11.25 11.5 q 0.25,0 0.375,-0.125 L 12,0.75 11.9375,0.8125 11.875,0.875 11.8125,1.3125 Q 11.75,1.75 11.5,2 11.25,2.25 11.125,2.625 11,3 10.875,3.375 10.75,3.75 10.5,3.75 10.25,3.75 10.125,3.375 10,3 10.125,2.625 10.25,2.25 10.5,2 10.75,1.75 10.875,1.375 M 11.375,1 H 11 10.875 10.75 11 q 0.25,0 0.5,0 h 0.25 -0.375"
           style="fill:#51952c;fill-opacity:1" />
        <path
           inkscape:connector-curvature="0"
           id="path1154"
           d="M 11.8125,1.3125 11.875,0.875 12.4375,0.9375 Q 13,1 13.5,1 q 0.5,0 0.875,0.125 0.375,0.125 0.5,0.5 L 15,2 14.625,1.875 Q 14.25,1.75 14,2.03125 L 13.75,2.3125 13.8125,2.34375 13.875,2.375 13.75,2.3125 Q 13.625,2.25 13.5,2.25 H 13.375 13.5625 13.75 13.5 q -0.25,0 -0.25,0.25 0,0.25 0.25,0.5 0.25,0.25 0.375,0.625 Q 14,4 14.125,4.375 L 14.25,4.75 14.15625,4.46875 14.0625,4.1875 14.125,4.375 q 0.0625,0.1875 0.1875,0.3125 l 0.125,0.125 L 14.375,4.75 14.3125,4.6875 14.03125,4.96875 Q 13.75,5.25 13.875,5.625 L 14,6 H 13.5 Q 13,6 13,6.5 V 7 H 12.5 Q 12,7 11.5,7 H 11 V 6.5 Q 11,6 10.5,6 H 10 V 5.5 Q 10,5 9.875,4.625 L 9.75,4.25 9.84375,4.53125 9.9375,4.8125 9.875,4.625 Q 9.8125,4.4375 9.71875,4.34375 L 9.625,4.25 9.671875,4.296875 9.71875,4.34375 10,4 10.28125,3.65625 10.234375,3.609375 10.1875,3.5625 10.28125,3.65625 Q 10.375,3.75 10.5,3.75 H 10.625 10.4375 10.25 10.5 q 0.25,0 0.375,-0.375 Q 11,3 11.125,2.625 11.25,2.25 11.5,2 11.75,1.75 11.8125,1.3125"
           style="fill:#1cc53b;fill-opacity:1" />
        <path
           inkscape:connector-curvature="0"
           id="path1156"
           d="M 4,2.5 Q 4.25,2.25 4.625,2.125 L 5,2 V 2.5 3 L 4.625,3.125 Q 4.25,3.25 4.125,3.625 4,4 3.5,4 H 3 L 3.125,3.625 Q 3.25,3.25 3.5,3 3.75,2.75 4,2.5"
           style="fill:#06ab1e;fill-opacity:1" />
        <path
           inkscape:connector-curvature="0"
           id="path1158"
           d="M 5,2.5 V 2 L 5.375,1.875 5.75,1.75 5.46875,1.84375 5.1875,1.9375 5.375,1.875 Q 5.5625,1.8125 5.71875,1.71875 L 5.875,1.625 5.796875,1.671875 5.71875,1.71875 5.984375,1.984375 Q 6.25,2.25 6.5,2 6.75,1.75 7.03125,2.03125 L 7.3125,2.3125 7.375,2.25 7.4375,2.1875 7.3125,2.3125 Q 7.1875,2.4375 7.125,2.625 L 7.0625,2.8125 7.15625,2.53125 7.25,2.25 7.125,2.625 Q 7,3 7.125,3.375 L 7.25,3.75 7.15625,3.46875 7.0625,3.1875 7.125,3.375 Q 7.1875,3.5625 7.3125,3.6875 L 7.4375,3.8125 7.375,3.75 7.3125,3.6875 7.03125,3.96875 Q 6.75,4.25 6.375,4.125 6,4 5.5,4 H 5 V 3.5 3 2.5"
           style="fill:#1cc53b;fill-opacity:1" />
        <path
           inkscape:connector-curvature="0"
           id="path1160"
           d="M 7.125,2.625 Q 7.25,2.25 7.625,2.125 L 8,2 8.375,2.125 Q 8.75,2.25 8.875,2.625 9,3 8.875,3.375 8.75,3.75 8.375,3.875 L 8,4 7.625,3.875 Q 7.25,3.75 7.125,3.375 7,3 7.125,2.625"
           style="fill:#51952c;fill-opacity:1" />
        <path
           inkscape:connector-curvature="0"
           id="path1162"
           d="m 13.25,2.5 q 0,-0.25 0.25,-0.25 0.25,0 0.5,0.25 0.25,0.25 0.5,0.5 0.25,0.25 0.5,0.5 0.25,0.25 0.5,0.5 0.25,0.25 0.25,0.5 0,0.25 -0.375,0.375 Q 15,5 14.625,4.875 14.25,4.75 14.125,4.375 14,4 13.875,3.625 13.75,3.25 13.5,3 13.25,2.75 13.25,2.5"
           style="fill:#51952c;fill-opacity:1" />
        <path
           inkscape:connector-curvature="0"
           id="path1164"
           d="M 14,2.5 13.75,2.25 13.9375,2.4375 14.125,2.625 14,2.5 Q 13.875,2.375 13.75,2.3125 L 13.625,2.25 13.6875,2.28125 13.75,2.3125 14,2.03125 Q 14.25,1.75 14.625,1.875 L 15,2 15.125,2.375 Q 15.25,2.75 15,3 L 14.75,3.25 14.5,3 Q 14.25,2.75 14,2.5 M 14.5625,3.0625 14.75,3.25 14.8125,3.3125 14.875,3.375 14.75,3.25 Q 14.625,3.125 14.5,3 l -0.125,-0.125 0.1875,0.1875"
           style="fill:#23cc3c;fill-opacity:1" />
        <path
           inkscape:connector-curvature="0"
           id="path1166"
           d="M 15.125,2.375 15,2 h 0.5 q 0.5,0 1,0 0.5,0 1,0 0.5,0 1,0 H 19 L 19.125,2.375 19.25,2.75 19.15625,2.46875 19.0625,2.1875 19.125,2.375 q 0.0625,0.1875 0.1875,0.3125 l 0.125,0.125 L 19.375,2.75 19.3125,2.6875 19.03125,2.96875 Q 18.75,3.25 18.375,3.125 18,3 18,3.5 V 4 H 17.5 Q 17,4 17,4.5 V 5 L 16.625,5.125 Q 16.25,5.25 15.953125,4.984375 L 15.65625,4.71875 15.609375,4.765625 15.5625,4.8125 15.65625,4.71875 Q 15.75,4.625 15.75,4.5 V 4.375 4.5625 4.75 4.5 Q 15.75,4.25 15.5,4 15.25,3.75 15,3.5 L 14.75,3.25 15,3 Q 15.25,2.75 15.125,2.375 M 14.6875,3.1875 14.75,3.25 14.9375,3.4375 15.125,3.625 15,3.5 Q 14.875,3.375 14.75,3.25 l -0.125,-0.125 0.0625,0.0625"
           style="fill:#03a81e;fill-opacity:1" />
        <path
           inkscape:connector-curvature="0"
           id="path1168"
           d="M 4.125,3.625 Q 4.25,3.25 4.625,3.125 L 5,3 V 3.5 4 4.5 5 H 4.5 Q 4,5 3.5,5 H 3 V 4.5 4 H 3.5 Q 4,4 4.125,3.625 M 3,4.625 V 5 5.125 5.25 5 Q 3,4.75 3,4.5 V 4.25 4.625"
           style="fill:#03a81e;fill-opacity:1" />
        <path
           inkscape:connector-curvature="0"
           id="path1170"
           d="M 18,3.5 Q 18,3 18.375,3.125 18.75,3.25 19.03125,2.96875 L 19.3125,2.6875 19.25,2.625 19.1875,2.5625 l 0.125,0.125 q 0.125,0.125 0.3125,0.1875 L 19.8125,2.9375 19.53125,2.84375 19.25,2.75 19.625,2.875 Q 20,3 20.5,3 21,3 21.5,3 22,3 22.375,3.125 22.75,3.25 23,3.5 23.25,3.75 23.5,4 23.75,4.25 24,4.5 24.25,4.75 24.625,4.875 25,5 25.375,5.125 25.75,5.25 26,5.5 26.25,5.75 26.5,6 26.75,6.25 26.875,6.625 L 27,7 26.90625,6.71875 26.8125,6.4375 26.875,6.625 q 0.0625,0.1875 0.09375,0.40625 L 27,7.25 26.984375,7.140625 26.96875,7.03125 26.609375,6.890625 Q 26.25,6.75 26,6.5 25.75,6.25 25.5,6.25 H 25.25 25.4375 25.625 25.5 q -0.125,0 -0.21875,0.09375 L 25.1875,6.4375 25.234375,6.390625 25.28125,6.34375 25.015625,6.046875 Q 24.75,5.75 24.375,5.875 24,6 23.875,5.625 23.75,5.25 23.375,5.125 L 23,5 22.875,4.625 Q 22.75,4.25 22.375,4.125 L 22,4 H 21.5 Q 21,4 20.5,4 20,4 19.5,4 19,4 18.5,4 H 18 V 3.5"
           style="fill:#06ab1e;fill-opacity:1" />
        <path
           inkscape:connector-curvature="0"
           id="path1172"
           d="M 5,4.5 V 4 H 5.5 Q 6,4 6.375,4.125 6.75,4.25 7.03125,3.96875 L 7.3125,3.6875 7.25,3.625 7.1875,3.5625 7.3125,3.6875 Q 7.4375,3.8125 7.625,3.875 L 7.8125,3.9375 7.53125,3.84375 7.25,3.75 7.625,3.875 8,4 8.125,4.375 Q 8.25,4.75 8.625,4.875 9,5 9,5.5 9,6 9.5,6 H 10 l 0.125,0.375 q 0.125,0.375 0.5,0.5 L 11,7 h 0.5 q 0.5,0 1,0 H 13 V 7.5 Q 13,8 13,8.5 13,9 13.5,9 H 14 V 9.5 Q 14,10 13.5,10 13,10 13,10.5 q 0,0.5 0,1 V 12 H 12.5 Q 12,12 12,12.5 V 13 H 11.5 11 V 12.5 Q 11,12 10.5,12 H 10 L 9.875,11.625 9.75,11.25 9.84375,11.53125 9.9375,11.8125 9.875,11.625 Q 9.8125,11.4375 9.71875,11.28125 L 9.625,11.125 9.671875,11.203125 9.71875,11.28125 9.984375,11.015625 Q 10.25,10.75 10.125,10.375 10,10 10.5,10 H 11 l 0.125,0.375 q 0.125,0.375 0.375,0.375 0.25,0 0.375,-0.375 Q 12,10 11.875,9.625 11.75,9.25 11.5,9.25 H 11.25 11.4375 11.625 11.5 q -0.125,0 -0.21875,0.09375 L 11.1875,9.4375 11.234375,9.390625 11.28125,9.34375 11.015625,9.046875 Q 10.75,8.75 10.5,9 10.25,9.25 9.984375,8.984375 L 9.71875,8.71875 9.671875,8.796875 9.625,8.875 9.71875,8.71875 Q 9.8125,8.5625 9.875,8.375 L 9.9375,8.1875 9.84375,8.46875 9.75,8.75 9.875,8.375 Q 10,8 9.875,7.625 9.75,7.25 9.375,7.125 9,7 8.625,6.875 8.25,6.75 8.125,6.375 8,6 7.875,5.625 7.75,5.25 7.375,5.125 7,5 6.5,5 6,5 5.5,5 H 5 V 4.5"
           style="fill:#23cc3c;fill-opacity:1" />
        <path
           inkscape:connector-curvature="0"
           id="path1174"
           d="M 8.125,4.375 8,4 8.375,3.875 8.75,3.75 8.46875,3.84375 8.1875,3.9375 8.375,3.875 Q 8.5625,3.8125 8.6875,3.6875 L 8.8125,3.5625 8.75,3.625 8.6875,3.6875 8.96875,3.96875 Q 9.25,4.25 9.5,4.25 9.75,4.25 9.875,4.625 10,5 10,5.5 V 6 H 9.5 Q 9,6 9,5.5 9,5 8.625,4.875 8.25,4.75 8.125,4.375"
           style="fill:#06ab1e;fill-opacity:1" />
        <path
           inkscape:connector-curvature="0"
           id="path1176"
           d="M 17,4.5 Q 17,4 17.5,4 h 0.5 0.5 q 0.5,0 1,0 0.5,0 1,0 0.5,0 1,0 H 22 V 4.5 Q 22,5 22.5,5 H 23 V 5.5 Q 23,6 22.5,6 H 22 21.5 Q 21,6 20.5,6 20,6 19.5,6 19,6 18.5,6 H 18 17.5 Q 17,6 17,5.5 V 5 4.5"
           style="fill:#1cc53b;fill-opacity:1" />
        <path
           inkscape:connector-curvature="0"
           id="path1178"
           d="M 22,4.5 V 4 l 0.375,0.125 q 0.375,0.125 0.5,0.5 L 23,5 H 22.5 Q 22,5 22,4.5"
           style="fill:#03a81e;fill-opacity:1" />
        <path
           inkscape:connector-curvature="0"
           id="path1180"
           d="M 3,5.5 V 5 H 3.5 Q 4,5 4.5,5 H 5 5.5 Q 6,5 6.5,5 7,5 7.375,5.125 7.75,5.25 7.875,5.625 8,6 8.125,6.375 8.25,6.75 8.625,6.875 9,7 9.375,7.125 9.75,7.25 9.875,7.625 10,8 9.875,8.375 9.75,8.75 9.5,9 9.25,9.25 9.125,9.625 L 9,10 9.09375,9.71875 9.1875,9.4375 9.125,9.625 Q 9.0625,9.8125 9.0625,10 V 10.1875 10.09375 10 H 8.53125 Q 8,10 7.53125,10 H 7.0625 V 10.09375 10.1875 10 q 0,-0.1875 0.0625,-0.375 L 7.1875,9.4375 7.09375,9.71875 7,10 7.125,9.625 Q 7.25,9.25 7.5,9 7.75,8.75 7.875,8.375 8,8 7.875,7.625 7.75,7.25 7.375,7.125 7,7 6.625,7.125 6.25,7.25 6.125,7.625 6,8 5.875,8.375 5.75,8.75 5.375,8.875 5,9 4.5,9 4,9 3.625,8.875 3.25,8.75 3.125,8.375 3,8 3.125,7.625 3.25,7.25 3.5,7 3.75,6.75 3.75,6.5 3.75,6.25 3.359375,6.109375 L 2.96875,5.96875 2.953125,6.078125 2.9375,6.1875 2.96875,5.96875 Q 3,5.75 3,5.5 V 5.25 5.625 6 5.5 M 3,4.875 V 5 5.375 5.75 5.5 Q 3,5.25 3,5 V 4.75 4.875"
           style="fill:#51952c;fill-opacity:1" />
        <path
           inkscape:connector-curvature="0"
           id="path1182"
           d="M 13.875,5.625 Q 13.75,5.25 14.03125,4.96875 L 14.3125,4.6875 14.25,4.625 14.1875,4.5625 l 0.125,0.125 q 0.125,0.125 0.3125,0.1875 L 14.8125,4.9375 14.53125,4.84375 14.25,4.75 14.625,4.875 Q 15,5 15.375,4.875 L 15.75,4.75 15.46875,4.84375 15.1875,4.9375 15.375,4.875 Q 15.5625,4.8125 15.65625,4.71875 L 15.75,4.625 15.703125,4.671875 15.65625,4.71875 15.953125,4.984375 Q 16.25,5.25 16.625,5.125 L 17,5 V 5.5 Q 17,6 17.5,6 H 18 L 18.125,6.375 18.25,6.75 18.15625,6.46875 18.0625,6.1875 18.125,6.375 q 0.0625,0.1875 0.1875,0.3125 l 0.125,0.125 L 18.375,6.75 18.3125,6.6875 18.03125,6.96875 Q 17.75,7.25 17.375,7.125 17,7 17,7.5 17,8 17.5,8 18,8 18,8.5 V 9 L 17.625,9.125 17.25,9.25 17.53125,9.15625 17.8125,9.0625 17.625,9.125 Q 17.4375,9.1875 17.28125,9.28125 L 17.125,9.375 17.203125,9.328125 17.28125,9.28125 17.015625,9.015625 Q 16.75,8.75 16.375,8.875 16,9 15.5,9 H 15 V 8.5 Q 15,8 15,7.5 15,7 14.5,7 H 14 V 6.5 6 L 13.875,5.625"
           style="fill:#23cc3c;fill-opacity:1" />
        <path
           inkscape:connector-curvature="0"
           id="path1184"
           d="M 23,5.5 V 5 l 0.375,0.125 q 0.375,0.125 0.5,0.5 Q 24,6 24.375,5.875 24.75,5.75 25.015625,6.046875 L 25.28125,6.34375 25.328125,6.296875 25.375,6.25 25.28125,6.34375 Q 25.1875,6.4375 25.125,6.625 L 25.0625,6.8125 25.15625,6.53125 25.25,6.25 25.125,6.625 Q 25,7 25,7.5 25,8 24.875,8.375 24.75,8.75 24.375,8.875 24,9 23.5,9 23,9 22.625,9.125 L 22.25,9.25 22.53125,9.15625 22.8125,9.0625 22.625,9.125 Q 22.4375,9.1875 22.28125,9.28125 L 22.125,9.375 22.203125,9.328125 22.28125,9.28125 21.984375,8.984375 21.6875,8.6875 21.65625,8.71875 21.625,8.75 21.6875,8.6875 Q 21.75,8.625 21.75,8.5 V 8.375 8.5625 8.75 8.5 Q 21.75,8.25 21.5,8 21.25,7.75 21.25,7.5 21.25,7.25 21.5,7 21.75,6.75 21.875,6.375 L 22,6 h 0.5 Q 23,6 23,5.5"
           style="fill:#03a81e;fill-opacity:1" />
        <path
           inkscape:connector-curvature="0"
           id="path1186"
           d="M 2.875,6.375 3,6 2.90625,6.28125 2.8125,6.5625 2.875,6.375 Q 2.9375,6.1875 2.96875,5.96875 L 3,5.75 2.984375,5.859375 2.96875,5.96875 3.359375,6.109375 Q 3.75,6.25 3.75,6.5 3.75,6.75 3.5,7 L 3.25,7.25 3.4375,7.0625 3.625,6.875 3.5,7 Q 3.375,7.125 3.28125,7.28125 L 3.1875,7.4375 3.234375,7.359375 3.28125,7.28125 3,7 2.71875,6.71875 2.671875,6.796875 2.625,6.875 2.71875,6.71875 Q 2.8125,6.5625 2.875,6.375 L 2.9375,6.1875 2.84375,6.46875 2.75,6.75 2.875,6.375"
           style="fill:#06ab1e;fill-opacity:1" />
        <path
           inkscape:connector-curvature="0"
           id="path1188"
           d="M 10.125,6.375 10,6 h 0.5 Q 11,6 11,6.5 V 7 L 10.625,6.875 q -0.375,-0.125 -0.5,-0.5"
           style="fill:#06ab1e;fill-opacity:1" />
        <path
           inkscape:connector-curvature="0"
           id="path1190"
           d="M 13,6.5 Q 13,6 13.5,6 H 14 V 6.5 7 H 13.5 13 V 6.5"
           style="fill:#06ab1e;fill-opacity:1" />
        <path
           inkscape:connector-curvature="0"
           id="path1192"
           d="M 18.125,6.375 18,6 h 0.5 q 0.5,0 1,0 0.5,0 1,0 0.5,0 1,0 H 22 L 21.875,6.375 Q 21.75,6.75 21.5,7 q -0.25,0.25 -0.25,0.5 0,0.25 0.25,0.5 0.25,0.25 0.25,0.5 0,0.25 -0.25,0.25 Q 21.25,8.75 21,8.5 20.75,8.25 20.5,8 20.25,7.75 20,7.5 19.75,7.25 19.375,7.125 19,7 18.625,6.875 18.25,6.75 18.125,6.375"
           style="fill:#36e256;fill-opacity:1" />
        <path
           inkscape:connector-curvature="0"
           id="path1194"
           d="M 25.125,6.625 Q 25.25,6.25 25.5,6.25 q 0.25,0 0.5,0.25 0.25,0.25 0.609375,0.390625 L 26.96875,7.03125 26.953125,6.921875 26.9375,6.8125 26.96875,7.03125 Q 27,7.25 27,7.5 V 7.75 7.375 7 7.5 q 0,0.5 0,1 0,0.5 0,1 V 10 H 26.5 Q 26,10 25.625,10.125 25.25,10.25 25.140625,10.640625 L 25.03125,11.03125 25.140625,11.015625 25.25,11 25.03125,11.03125 Q 24.8125,11.0625 24.625,11.125 L 24.4375,11.1875 24.71875,11.09375 25,11 24.625,11.125 Q 24.25,11.25 24.25,11.5 q 0,0.25 0.375,0.375 L 25,12 24.875,12.375 q -0.125,0.375 -0.5,0.5 Q 24,13 23.875,12.625 23.75,12.25 23.375,12.125 23,12 23,12.5 V 13 L 22.625,13.125 22.25,13.25 22.53125,13.15625 22.8125,13.0625 22.625,13.125 q -0.1875,0.0625 -0.3125,0.1875 l -0.125,0.125 0.0625,-0.0625 0.0625,-0.0625 -0.28125,-0.28125 Q 21.75,12.75 21.5,12.75 21.25,12.75 21.125,12.375 21,12 20.5,12 20,12 20,11.5 20,11 20,10.5 V 10 l 0.375,0.125 Q 20.75,10.25 21,9.96875 L 21.25,9.6875 21.1875,9.65625 21.125,9.625 21.25,9.6875 Q 21.375,9.75 21.5,9.75 H 21.625 21.4375 21.25 21.5 Q 21.75,9.75 22,9.5 22.25,9.25 22.625,9.125 23,9 23.5,9 24,9 24.375,8.875 24.75,8.75 24.875,8.375 25,8 25,7.5 25,7 25.125,6.625 M 23,10.5 q 0,0.5 0.375,0.375 0.375,-0.125 0.5,-0.5 Q 24,10 23.5,10 23,10 23,10.5"
           style="fill:#36e256;fill-opacity:1" />
        <path
           inkscape:connector-curvature="0"
           id="path1196"
           d="M 2.125,7.625 Q 2.25,7.25 2.5,7 L 2.75,6.75 2.5625,6.9375 2.375,7.125 2.5,7 Q 2.625,6.875 2.71875,6.71875 L 2.8125,6.5625 2.765625,6.640625 2.71875,6.71875 3,7 3.28125,7.28125 3.328125,7.203125 3.375,7.125 3.28125,7.28125 Q 3.1875,7.4375 3.125,7.625 L 3.0625,7.8125 3.15625,7.53125 3.25,7.25 3.125,7.625 Q 3,8 3.125,8.375 L 3.25,8.75 3.15625,8.46875 3.0625,8.1875 3.125,8.375 Q 3.1875,8.5625 3.3125,8.6875 L 3.4375,8.8125 3.375,8.75 3.3125,8.6875 3.03125,8.96875 Q 2.75,9.25 2.5,9.25 H 2.25 2.4375 2.625 2.5 q -0.125,0 -0.21875,0.09375 L 2.1875,9.4375 2.234375,9.390625 2.28125,9.34375 2,9.03125 1.71875,8.71875 1.671875,8.796875 1.625,8.875 1.71875,8.71875 Q 1.8125,8.5625 1.875,8.375 L 1.9375,8.1875 1.84375,8.46875 1.75,8.75 1.875,8.375 Q 2,8 2.125,7.625"
           style="fill:#03a81e;fill-opacity:1" />
        <path
           inkscape:connector-curvature="0"
           id="path1198"
           d="M 6.125,7.625 Q 6.25,7.25 6.625,7.125 7,7 7.375,7.125 7.75,7.25 7.875,7.625 8,8 7.875,8.375 7.75,8.75 7.5,9 L 7.25,9.25 7.4375,9.0625 7.625,8.875 7.5,9 Q 7.375,9.125 7.28125,9.28125 L 7.1875,9.4375 7.234375,9.359375 7.28125,9.28125 7.015625,9.015625 Q 6.75,8.75 6.5,9 6.25,9.25 5.96875,8.96875 L 5.6875,8.6875 5.625,8.75 5.5625,8.8125 5.6875,8.6875 Q 5.8125,8.5625 5.875,8.375 L 5.9375,8.1875 5.84375,8.46875 5.75,8.75 5.875,8.375 Q 6,8 6.125,7.625"
           style="fill:#06ab1e;fill-opacity:1" />
        <path
           inkscape:connector-curvature="0"
           id="path1200"
           d="M 13,7.5 V 7 h 0.5 0.5 v 0.5 q 0,0.5 0,1 V 9 H 13.5 Q 13,9 13,8.5 13,8 13,7.5"
           style="fill:#1cc53b;fill-opacity:1" />
        <path
           inkscape:connector-curvature="0"
           id="path1202"
           d="M 14,7.5 V 7 h 0.5 Q 15,7 15,7.5 15,8 15,8.5 V 9 H 14.5 14 V 8.5 q 0,-0.5 0,-1"
           style="fill:#06ab1e;fill-opacity:1" />
        <path
           inkscape:connector-curvature="0"
           id="path1204"
           d="M 17,7.5 Q 17,7 17.375,7.125 17.75,7.25 18.03125,6.96875 L 18.3125,6.6875 18.25,6.625 18.1875,6.5625 l 0.125,0.125 q 0.125,0.125 0.3125,0.1875 L 18.8125,6.9375 18.53125,6.84375 18.25,6.75 18.625,6.875 Q 19,7 19.375,7.125 19.75,7.25 20,7.5 20.25,7.75 20.5,8 20.75,8.25 21,8.5 21.25,8.75 21.5,8.75 H 21.75 21.5625 21.375 21.5 q 0.125,0 0.1875,-0.0625 L 21.75,8.625 21.71875,8.65625 21.6875,8.6875 21.984375,8.984375 22.28125,9.28125 22.359375,9.234375 22.4375,9.1875 22.28125,9.28125 Q 22.125,9.375 22,9.5 L 21.875,9.625 22.0625,9.4375 22.25,9.25 22,9.5 Q 21.75,9.75 21.5,9.75 21.25,9.75 21,9.5 20.75,9.25 20.5,9 20.25,8.75 19.96875,9.03125 L 19.6875,9.3125 19.75,9.375 19.8125,9.4375 19.6875,9.3125 Q 19.5625,9.1875 19.375,9.125 L 19.1875,9.0625 19.46875,9.15625 19.75,9.25 19.375,9.125 Q 19,9 18.5,9 H 18 V 8.5 Q 18,8 17.5,8 17,8 17,7.5"
           style="fill:#06ab1e;fill-opacity:1" />
        <path
           inkscape:connector-curvature="0"
           id="path1206"
           d="M 1.125,9.625 Q 1.25,9.25 1.5,9 L 1.75,8.75 1.5625,8.9375 1.375,9.125 1.5,9 Q 1.625,8.875 1.71875,8.71875 L 1.8125,8.5625 1.765625,8.640625 1.71875,8.71875 2,9.03125 2.28125,9.34375 2.328125,9.296875 2.375,9.25 2.28125,9.34375 Q 2.1875,9.4375 2.125,9.625 L 2.0625,9.8125 2.15625,9.53125 2.25,9.25 2.125,9.625 Q 2,10 2,10.5 V 11 L 1.484375,10.984375 0.96875,10.96875 0.953125,11.078125 0.9375,11.1875 0.96875,10.96875 Q 1,10.75 1,10.5 V 10.25 10.625 11 10.5 Q 1,10 1.125,9.625"
           style="fill:#06ab1e;fill-opacity:1" />
        <path
           inkscape:connector-curvature="0"
           id="path1208"
           d="M 2.125,9.625 Q 2.25,9.25 2.5,9.25 2.75,9.25 3.03125,8.96875 L 3.3125,8.6875 3.25,8.625 3.1875,8.5625 3.3125,8.6875 Q 3.4375,8.8125 3.625,8.875 L 3.8125,8.9375 3.53125,8.84375 3.25,8.75 3.625,8.875 Q 4,9 4.5,9 5,9 5.375,8.875 L 5.75,8.75 5.46875,8.84375 5.1875,8.9375 5.375,8.875 Q 5.5625,8.8125 5.6875,8.6875 L 5.8125,8.5625 5.75,8.625 5.6875,8.6875 5.96875,8.96875 Q 6.25,9.25 6.5,9 6.75,8.75 7.015625,9.015625 L 7.28125,9.28125 7.328125,9.203125 7.375,9.125 7.28125,9.28125 Q 7.1875,9.4375 7.125,9.625 L 7.0625,9.8125 7.15625,9.53125 7.25,9.25 7.125,9.625 Q 7,10 7.125,10.375 L 7.25,10.75 7.15625,10.46875 7.0625,10.1875 7.125,10.375 q 0.0625,0.1875 0.15625,0.34375 L 7.375,10.875 7.328125,10.796875 7.28125,10.71875 6.984375,11.015625 6.6875,11.3125 6.75,11.375 6.8125,11.4375 6.6875,11.3125 Q 6.5625,11.1875 6.375,11.125 L 6.1875,11.0625 6.46875,11.15625 6.75,11.25 6.375,11.125 Q 6,11 5.5,11 5,11 4.5,11 4,11 3.625,10.875 3.25,10.75 2.96875,11.03125 L 2.6875,11.3125 2.75,11.375 2.8125,11.4375 2.6875,11.3125 Q 2.5625,11.1875 2.375,11.125 L 2.1875,11.0625 2.46875,11.15625 2.75,11.25 2.375,11.125 2,11 V 10.5 Q 2,10 2.125,9.625"
           style="fill:#1cc53b;fill-opacity:1" />
        <path
           inkscape:connector-curvature="0"
           id="path1210"
           d="M 9.125,9.625 Q 9.25,9.25 9.5,9 L 9.75,8.75 9.5625,8.9375 9.375,9.125 9.5,9 Q 9.625,8.875 9.71875,8.71875 L 9.8125,8.5625 9.765625,8.640625 9.71875,8.71875 9.984375,8.984375 Q 10.25,9.25 10.5,9 10.75,8.75 11.015625,9.046875 L 11.28125,9.34375 11.328125,9.296875 11.375,9.25 11.28125,9.34375 Q 11.1875,9.4375 11.125,9.625 L 11.0625,9.8125 11.15625,9.53125 11.25,9.25 11.125,9.625 11,10 H 10.5 Q 10,10 10.125,10.375 10.25,10.75 9.984375,11.015625 L 9.71875,11.28125 9.765625,11.359375 9.8125,11.4375 9.71875,11.28125 Q 9.625,11.125 9.5,11 L 9.375,10.875 9.5625,11.0625 9.75,11.25 9.5,11 Q 9.25,10.75 9.125,10.375 9,10 9.125,9.625"
           style="fill:#1cc53b;fill-opacity:1" />
        <path
           inkscape:connector-curvature="0"
           id="path1212"
           d="M 11.125,9.625 Q 11.25,9.25 11.5,9.25 q 0.25,0 0.375,0.375 0.125,0.375 0,0.75 -0.125,0.375 -0.375,0.375 -0.25,0 -0.375,-0.375 L 11,10 11.125,9.625"
           style="fill:#51952c;fill-opacity:1" />
        <path
           inkscape:connector-curvature="0"
           id="path1214"
           d="M 14,9.5 V 9 h 0.5 0.5 0.5 Q 16,9 16.375,8.875 16.75,8.75 17.015625,9.015625 L 17.28125,9.28125 17.359375,9.234375 17.4375,9.1875 17.28125,9.28125 Q 17.125,9.375 17,9.5 L 16.875,9.625 17.0625,9.4375 17.25,9.25 17,9.5 Q 16.75,9.75 16.375,9.875 16,10 15.625,10.125 15.25,10.25 15.25,10.5 q 0,0.25 0.375,0.375 L 16,11 v 0.5 q 0,0.5 0,1 0,0.5 0.5,0.5 0.5,0 1,0 0.5,0 0.375,0.375 -0.125,0.375 0.171875,0.640625 l 0.296875,0.265625 0.04687,-0.04687 0.04687,-0.04687 -0.09375,0.09375 Q 18.25,14.375 18.25,14.5 V 14.625 14.4375 14.25 14.5 q 0,0.25 0.25,0.5 0.25,0.25 0.375,0.625 Q 19,16 19.125,16.375 L 19.25,16.75 19.15625,16.46875 19.0625,16.1875 19.125,16.375 q 0.0625,0.1875 0.15625,0.34375 L 19.375,16.875 19.328125,16.796875 19.28125,16.71875 18.984375,17.015625 18.6875,17.3125 18.75,17.375 l 0.0625,0.0625 -0.125,-0.125 Q 18.5625,17.1875 18.375,17.125 L 18.1875,17.0625 18.46875,17.15625 18.75,17.25 18.375,17.125 Q 18,17 17.5,17 17,17 16.625,17.125 16.25,17.25 15.96875,16.96875 L 15.6875,16.6875 15.625,16.75 l -0.0625,0.0625 0.125,-0.125 q 0.125,-0.125 0.1875,-0.3125 L 15.9375,16.1875 15.84375,16.46875 15.75,16.75 15.875,16.375 Q 16,16 16,15.5 16,15 16,14.5 16,14 15.5,14 15,14 15,14.5 15,15 14.5,15 14,15 14.125,15.375 14.25,15.75 13.984375,16.015625 l -0.265625,0.265625 0.04687,0.07813 0.04687,0.07813 -0.09375,-0.15625 Q 13.625,16.125 13.5,16 L 13.375,15.875 13.5625,16.0625 13.75,16.25 13.5,16 Q 13.25,15.75 13,15.5 L 12.75,15.25 12.9375,15.4375 13.125,15.625 13,15.5 q -0.125,-0.125 -0.28125,-0.21875 l -0.15625,-0.09375 0.07813,0.04687 0.07813,0.04687 0.265625,-0.265625 Q 13.25,14.75 13.125,14.375 13,14 12.625,14.125 L 12.25,14.25 12.53125,14.15625 12.8125,14.0625 12.625,14.125 q -0.1875,0.0625 -0.3125,0.1875 l -0.125,0.125 L 12.25,14.375 12.3125,14.3125 12.015625,13.984375 11.71875,13.65625 11.671875,13.703125 11.625,13.75 11.71875,13.65625 Q 11.8125,13.5625 11.875,13.375 L 11.9375,13.1875 11.84375,13.46875 11.75,13.75 11.875,13.375 12,13 h 0.5 Q 13,13 13,12.5 V 12 11.5 Q 13,11 13,10.5 13,10 13.5,10 14,10 14,9.5"
           style="fill:#1cc53b;fill-opacity:1" />
        <path
           inkscape:connector-curvature="0"
           id="path1216"
           d="M 17,9.5 Q 17.25,9.25 17.625,9.125 L 18,9 H 18.5 19 18.625 18.25 18.5 q 0.25,0 0.46875,0.03125 L 19.1875,9.0625 19.078125,9.046875 18.96875,9.03125 18.984375,9.515625 19,10 18.875,10.375 q -0.125,0.375 -0.5,0.5 Q 18,11 17.5,11 17,11 16.5,11 H 16 L 15.625,10.875 Q 15.25,10.75 15.25,10.5 q 0,-0.25 0.375,-0.375 Q 16,10 16.375,9.875 16.75,9.75 17,9.5"
           style="fill:#8d5943;fill-opacity:1" />
        <path
           inkscape:connector-curvature="0"
           id="path1218"
           d="M 18.984375,9.515625 18.96875,9.03125 18.859375,9.015625 18.75,9 18.96875,9.03125 Q 19.1875,9.0625 19.375,9.125 L 19.5625,9.1875 19.28125,9.09375 19,9 19.375,9.125 q 0.375,0.125 0.5,0.5 L 20,10 H 19.5 19 L 18.98437,9.515625"
           style="fill:#36e256;fill-opacity:1" />
        <path
           inkscape:connector-curvature="0"
           id="path1220"
           d="M 19.875,9.625 19.75,9.25 19.84375,9.53125 19.9375,9.8125 19.875,9.625 Q 19.8125,9.4375 19.6875,9.3125 L 19.5625,9.1875 19.625,9.25 19.6875,9.3125 19.96875,9.03125 Q 20.25,8.75 20.5,9 20.75,9.25 21,9.5 L 21.25,9.75 21.0625,9.5625 20.875,9.375 21,9.5 q 0.125,0.125 0.25,0.1875 L 21.375,9.75 21.3125,9.71875 21.25,9.6875 21,9.96875 Q 20.75,10.25 20.375,10.125 L 20,10 19.875,9.625"
           style="fill:#23cc3c;fill-opacity:1" />
        <path
           inkscape:connector-curvature="0"
           id="path1222"
           d="M 7.125,10.375 7,10 7.09375,10.28125 7.1875,10.5625 7.125,10.375 Q 7.0625,10.1875 7.0625,10 V 9.8125 9.90625 10 h 0.46875 q 0.46875,0 1,0 H 9.0625 V 9.90625 9.8125 10 q 0,0.1875 0.0625,0.375 L 9.1875,10.5625 9.09375,10.28125 9,10 9.125,10.375 Q 9.25,10.75 9.5,11 9.75,11.25 9.875,11.625 L 10,12 V 12.5 13 12.625 12.25 12.5 q 0,0.25 0.03125,0.46875 L 10.0625,13.1875 10.04687,13.078125 10.03124,12.96875 9.515615,12.98438 Q 9,13 8.5,13 H 8 8.375 8.75 8.5 Q 8.25,13 8.03125,13.03125 L 7.8125,13.0625 7.921875,13.046875 8.03125,13.03125 8.015625,12.515625 Q 8,12 7.875,11.625 7.75,11.25 7.5,11 7.25,10.75 7.125,10.375"
           style="fill:#8d5943;fill-opacity:1" />
        <path
           inkscape:connector-curvature="0"
           id="path1224"
           d="M 18.875,10.375 19,10 h 0.5 0.5 v 0.5 q 0,0.5 0,1 0,0.5 0.5,0.5 0.5,0 0.625,0.375 0.125,0.375 0.375,0.375 0.25,0 0.53125,0.28125 l 0.28125,0.28125 0.0625,-0.0625 0.0625,-0.0625 -0.125,0.125 q -0.125,0.125 -0.1875,0.3125 L 22.0625,13.8125 22.15625,13.53125 22.25,13.25 22.125,13.625 Q 22,14 22.375,13.875 q 0.375,-0.125 0.5,-0.5 L 23,13 v -0.5 q 0,-0.5 0.375,-0.375 0.375,0.125 0.5,0.5 0.125,0.375 0.5,0.25 0.375,-0.125 0.5,-0.5 L 25,12 H 25.5 26 25.625 25.25 25.5 q 0.25,0 0.46875,0.03125 L 26.1875,12.0625 26.078125,12.04687 25.96875,12.03124 25.859375,12.390615 Q 25.75,12.75 25.5,13 25.25,13.25 25.25,13.5 V 13.75 13.5625 13.375 13.5 q 0,0.125 0.0625,0.25 L 25.375,13.875 25.34375,13.8125 25.3125,13.75 24.984375,14.015625 24.65625,14.28125 24.703125,14.328125 24.75,14.375 24.65625,14.28125 Q 24.5625,14.1875 24.375,14.125 L 24.1875,14.0625 24.46875,14.15625 24.75,14.25 24.375,14.125 Q 24,14 23.625,14.125 23.25,14.25 23,14.5 22.75,14.75 22.5,15 L 22.25,15.25 22.4375,15.0625 22.625,14.875 22.5,15 q -0.125,0.125 -0.21875,0.28125 l -0.09375,0.15625 0.04687,-0.07813 0.04687,-0.07813 -0.265625,-0.265625 Q 21.75,14.75 21.375,14.875 L 21,15 20.875,14.625 20.75,14.25 20.84375,14.53125 20.9375,14.8125 20.875,14.625 q -0.0625,-0.1875 -0.1875,-0.3125 l -0.125,-0.125 0.0625,0.0625 0.0625,0.0625 0.28125,-0.28125 Q 21.25,13.75 21,13.5 20.75,13.25 20.375,13.125 L 20,13 H 19.5 Q 19,13 19,12.5 19,12 19.125,11.625 19.25,11.25 18.96875,10.96875 L 18.6875,10.6875 18.625,10.75 l -0.0625,0.0625 0.125,-0.125 q 0.125,-0.125 0.1875,-0.3125 L 18.9375,10.1875 18.84375,10.46875 18.75,10.75 18.875,10.375"
           style="fill:#23cc3c;fill-opacity:1" />
        <path
           inkscape:connector-curvature="0"
           id="path1226"
           d="m 23,10.5 q 0,-0.5 0.5,-0.5 0.5,0 0.375,0.375 -0.125,0.375 -0.5,0.5 Q 23,11 23,10.5"
           style="fill:#23cc3c;fill-opacity:1" />
        <path
           inkscape:connector-curvature="0"
           id="path1228"
           d="M 25.140625,10.640625 Q 25.25,10.25 25.625,10.125 26,10 26.5,10 H 27 v 0.5 0.5 h -0.5 q -0.5,0 -1,0 H 25 25.375 25.75 25.5 q -0.25,0 -0.46875,0.03125 l -0.21875,0.03125 0.109375,-0.01563 0.109375,-0.01563 0.109375,-0.390625 M 26.625,11 H 27 27.125 27.25 27 q -0.25,0 -0.5,0 h -0.25 0.375"
           style="fill:#51952c;fill-opacity:1" />
        <path
           inkscape:connector-curvature="0"
           id="path1230"
           d="M 27,10.5 V 10 h 0.5 q 0.5,0 0.875,0.125 0.375,0.125 0.5,0.5 L 29,11 28.90625,10.71875 28.8125,10.4375 28.875,10.625 q 0.0625,0.1875 0.1875,0.3125 l 0.125,0.125 L 29.125,11 29.0625,10.9375 28.53125,10.96875 Q 28,11 27.5,11 H 27 V 10.5 M 26.875,11 H 27 27.375 27.75 27.5 q -0.25,0 -0.5,0 h -0.25 0.125"
           style="fill:#06ab1e;fill-opacity:1" />
        <path
           inkscape:connector-curvature="0"
           id="path1232"
           d="M 0.875,11.375 1,11 0.90625,11.28125 0.8125,11.5625 0.875,11.375 Q 0.9375,11.1875 0.96875,10.96875 L 1,10.75 0.984375,10.859375 0.96875,10.96875 1.484375,10.984375 2,11 2.375,11.125 q 0.375,0.125 0.5,0.5 Q 3,12 3,12.5 V 13 L 2.875,13.375 Q 2.75,13.75 2.5,14 2.25,14.25 2,14.5 1.75,14.75 1.3125,14.9375 L 0.875,15.125 0.9375,15.1875 1,15.25 0.875,15.125 Q 0.75,15 0.5,15 H 0.25 0.625 1 0.5 0 V 14.5 14 13.5 13 12.5 12 l 0.375,-0.125 q 0.375,-0.125 0.5,-0.5"
           style="fill:#51952c;fill-opacity:1" />
        <path
           inkscape:connector-curvature="0"
           id="path1234"
           d="M 2.875,11.625 2.75,11.25 2.84375,11.53125 2.9375,11.8125 2.875,11.625 Q 2.8125,11.4375 2.6875,11.3125 L 2.5625,11.1875 2.625,11.25 2.6875,11.3125 2.96875,11.03125 Q 3.25,10.75 3.625,10.875 4,11 4.5,11 q 0.5,0 1,0 0.5,0 0.875,0.125 0.375,0.125 0.5,0.5 Q 7,12 6.5,12 6,12 5.5,12 5,12 5,12.5 5,13 5,13.5 5,14 5.5,14 6,14 6.375,14.125 6.75,14.25 6.875,14.625 7,15 7,15.5 7,16 6.5,16 6,16 5.5,16 5,16 5,15.5 5,15 4.5,15 4,15 4,14.5 4,14 4,13.5 4,13 3.5,13 H 3 V 12.5 Q 3,12 2.875,11.625"
           style="fill:#23cc3c;fill-opacity:1" />
        <path
           inkscape:connector-curvature="0"
           id="path1236"
           d="M 6.875,11.625 6.75,11.25 6.84375,11.53125 6.9375,11.8125 6.875,11.625 Q 6.8125,11.4375 6.6875,11.3125 L 6.5625,11.1875 6.625,11.25 6.6875,11.3125 6.984375,11.015625 7.28125,10.71875 7.234375,10.640625 7.1875,10.5625 7.28125,10.71875 Q 7.375,10.875 7.5,11 L 7.625,11.125 7.4375,10.9375 7.25,10.75 7.5,11 Q 7.75,11.25 7.875,11.625 8,12 8.015625,12.515625 L 8.03125,13.03125 8.140625,13.015625 8.25,13 8.03125,13.03125 Q 7.8125,13.0625 7.625,13.125 L 7.4375,13.1875 7.71875,13.09375 8,13 7.625,13.125 Q 7.25,13.25 7.25,13.5 7.25,13.75 7.5,14 7.75,14.25 7.875,14.625 8,15 8.125,15.375 8.25,15.75 8.5,16 8.75,16.25 9,16.5 9.25,16.75 9.625,16.875 L 10,17 v 0.5 Q 10,18 9.5,18 9,18 9,18.5 9,19 8.5,19 8,19 8,19.5 8,20 7.5,20 7,20 7,19.5 7,19 6.5,19 H 6 V 18.5 Q 6,18 5.5,18 5,18 4.5,18 4,18 3.625,18.125 3.25,18.25 3.125,18.625 3,19 3.375,18.875 3.75,18.75 4,19.03125 L 4.25,19.3125 4.3125,19.28125 4.375,19.25 4.25,19.3125 Q 4.125,19.375 4,19.5 L 3.875,19.625 4.0625,19.4375 4.25,19.25 4,19.5 Q 3.75,19.75 3.375,19.875 3,20 2.625,19.875 2.25,19.75 2.125,19.375 2,19 2.125,18.625 2.25,18.25 2.5,18 2.75,17.75 2.75,17.5 2.75,17.25 2.5,17.25 2.25,17.25 2,17.5 1.75,17.75 1.5,18 1.25,18.25 1,18.5 0.75,18.75 0.375,18.875 L 0,19 V 18.5 18 L 0.375,17.875 Q 0.75,17.75 0.875,17.375 1,17 1,16.5 V 16 H 1.5 Q 2,16 2.5,16 3,16 3,15.5 3,15 2.625,15.125 2.25,15.25 1.984375,14.984375 L 1.71875,14.71875 1.640625,14.765625 1.5625,14.8125 1.71875,14.71875 Q 1.875,14.625 2,14.5 L 2.125,14.375 1.9375,14.5625 1.75,14.75 2,14.5 Q 2.25,14.25 2.5,14 2.75,13.75 2.875,13.375 L 3,13 H 3.5 Q 4,13 4,13.5 4,14 4,14.5 4,15 4.5,15 5,15 5,15.5 5,16 5.5,16 6,16 6.5,16 7,16 7,15.5 7,15 6.875,14.625 6.75,14.25 6.375,14.125 6,14 5.5,14 5,14 5,13.5 5,13 5,12.5 5,12 5.5,12 6,12 6.5,12 7,12 6.875,11.625"
           style="fill:#06ab1e;fill-opacity:1" />
        <path
           inkscape:connector-curvature="0"
           id="path1238"
           d="M 16,11.5 V 11 h 0.5 q 0.5,0 1,0 0.5,0 0.875,-0.125 L 18.75,10.75 18.46875,10.84375 18.1875,10.9375 18.375,10.875 q 0.1875,-0.0625 0.3125,-0.1875 l 0.125,-0.125 -0.0625,0.0625 -0.0625,0.0625 0.28125,0.28125 Q 19.25,11.25 19.125,11.625 19,12 19,12.5 19,13 19.5,13 H 20 l -0.01563,0.515625 -0.01563,0.515625 0.109375,0.01563 0.109375,0.01563 -0.21875,-0.03125 Q 19.75,14 19.5,14 H 19.25 19.625 20 19.5 Q 19,14 18.625,14.125 L 18.25,14.25 18.53125,14.15625 18.8125,14.0625 18.625,14.125 q -0.1875,0.0625 -0.28125,0.15625 L 18.25,14.375 18.29687,14.32813 18.34374,14.28126 18.046865,14.015635 Q 17.75,13.75 17.875,13.375 18,13 17.5,13 17,13 16.5,13 16,13 16,12.5 q 0,-0.5 0,-1"
           style="fill:#36e256;fill-opacity:1" />
        <path
           inkscape:connector-curvature="0"
           id="path1240"
           d="m 24.25,11.5 q 0,-0.25 0.375,-0.375 Q 25,11 25.5,11 q 0.5,0 1,0 0.5,0 1,0 0.5,0 1.03125,-0.03125 L 29.0625,10.9375 29,10.875 l -0.0625,-0.0625 0.125,0.125 q 0.125,0.125 0.3125,0.1875 L 29.5625,11.1875 29.28125,11.09375 29,11 l 0.375,0.125 q 0.375,0.125 0.5,0.5 L 30,12 29.90625,11.71875 29.8125,11.4375 29.875,11.625 q 0.0625,0.1875 0.1875,0.3125 l 0.125,0.125 L 30.125,12 30.0625,11.9375 29.90625,12.34375 Q 29.75,12.75 29.5,13 29.25,13.25 29.125,13.625 29,14 28.875,14.375 28.75,14.75 28.5,14.75 28.25,14.75 28,14.5 27.75,14.25 27.5,14 27.25,13.75 27.125,13.375 27,13 26.875,12.625 26.75,12.25 26.375,12.125 26,12 25.5,12 H 25 L 24.625,11.875 Q 24.25,11.75 24.25,11.5"
           style="fill:#1c9d34;fill-opacity:1" />
        <path
           inkscape:connector-curvature="0"
           id="path1242"
           d="M 10,12.5 V 12 h 0.5 Q 11,12 11,12.5 V 13 l 0.125,0.375 Q 11.25,13.75 11.5,13.75 H 11.75 11.5625 11.375 11.5 q 0.125,0 0.21875,-0.09375 l 0.09375,-0.09375 -0.04687,0.04687 -0.04687,0.04687 0.296875,0.328125 0.296875,0.328125 0.0625,-0.0625 0.0625,-0.0625 -0.125,0.125 q -0.125,0.125 -0.1875,0.3125 L 12.0625,14.8125 12.15625,14.53125 12.25,14.25 12.125,14.625 12,15 11.625,14.875 Q 11.25,14.75 11,14.5 10.75,14.25 10.5,14 10.25,13.75 10.125,13.375 10,13 10,12.5"
           style="fill:#03a81e;fill-opacity:1" />
        <path
           inkscape:connector-curvature="0"
           id="path1244"
           d="M 12,12.5 Q 12,12 12.5,12 H 13 v 0.5 Q 13,13 12.5,13 H 12 v -0.5"
           style="fill:#06ab1e;fill-opacity:1" />
        <path
           inkscape:connector-curvature="0"
           id="path1246"
           d="M 25.859375,12.390625 25.96875,12.03125 25.859375,12.015625 25.75,12 25.96875,12.03125 Q 26.1875,12.0625 26.375,12.125 L 26.5625,12.1875 26.28125,12.09375 26,12 l 0.375,0.125 q 0.375,0.125 0.5,0.5 Q 27,13 27.125,13.375 27.25,13.75 27.5,14 q 0.25,0.25 0.5,0.5 0.25,0.25 0.5,0.25 0.25,0 0.375,-0.375 L 29,14 l 0.515625,0.01563 0.515625,0.01563 0.01563,-0.109375 0.01563,-0.109375 -0.03125,0.21875 Q 30,14.25 30,14.5 V 14.75 14.375 14 14.5 15 14.625 14.25 14.5 q 0,0.25 0.09375,0.40625 l 0.09375,0.15625 -0.04687,-0.07813 -0.04687,-0.07813 -0.171875,0.421875 Q 29.75,15.75 29.375,15.875 L 29,16 H 28.5 28 27.5 Q 27,16 26.625,15.875 26.25,15.75 26.125,15.375 26,15 25.875,14.625 25.75,14.25 25.5,14 q -0.25,-0.25 -0.25,-0.5 0,-0.25 0.25,-0.5 0.25,-0.25 0.359375,-0.609375 M 29.03125,13.90625 29,14 28.90625,14.28125 28.8125,14.5625 28.875,14.375 Q 28.9375,14.1875 29,14 l 0.0625,-0.1875 -0.03125,0.09375"
           style="fill:#51952c;fill-opacity:1" />
        <path
           inkscape:connector-curvature="0"
           id="path1248"
           d="M 29.90625,12.34375 30.0625,11.9375 30,11.875 l -0.0625,-0.0625 0.125,0.125 q 0.125,0.125 0.3125,0.1875 L 30.5625,12.1875 30.28125,12.09375 30,12 l 0.375,0.125 q 0.375,0.125 0.375,0.375 0,0.25 -0.25,0.5 -0.25,0.25 -0.375,0.625 L 30,14 30.09375,13.71875 30.1875,13.4375 30.125,13.625 q -0.0625,0.1875 -0.09375,0.40625 L 30,14.25 30.015625,14.140625 30.03125,14.03125 29.515625,14.015625 29,14 29.125,13.625 Q 29.25,13.25 29.5,13 q 0.25,-0.25 0.40625,-0.65625 m -0.8125,1.375 L 29,14 28.96875,14.09375 28.9375,14.1875 29,14 q 0.0625,-0.1875 0.125,-0.375 l 0.0625,-0.1875 -0.09375,0.28125"
           style="fill:#06ab1e;fill-opacity:1" />
        <path
           inkscape:connector-curvature="0"
           id="path1250"
           d="m 7.25,13.5 q 0,-0.25 0.375,-0.375 Q 8,13 8.5,13 9,13 9.515625,12.984375 L 10.03125,12.96875 10.015625,12.859375 10,12.75 10.03125,12.96875 Q 10.0625,13.1875 10.125,13.375 L 10.1875,13.5625 10.09375,13.28125 10,13 10.125,13.375 Q 10.25,13.75 10.5,14 q 0.25,0.25 0.5,0.5 0.25,0.25 0.625,0.375 L 12,15 11.875,15.375 Q 11.75,15.75 11.5,16 11.25,16.25 11.125,16.625 L 11,17 11.09375,16.71875 11.1875,16.4375 11.125,16.625 q -0.0625,0.1875 -0.09375,0.40625 L 11,17.25 11.015625,17.140625 11.03125,17.03125 10.515625,17.015625 10,17 9.625,16.875 Q 9.25,16.75 9,16.5 8.75,16.25 8.5,16 8.25,15.75 8.125,15.375 8,15 7.875,14.625 7.75,14.25 7.5,14 7.25,13.75 7.25,13.5"
           style="fill:#51952c;fill-opacity:1" />
        <path
           inkscape:connector-curvature="0"
           id="path1252"
           d="M 11.125,13.375 11,13 h 0.5 0.5 l -0.125,0.375 Q 11.75,13.75 11.5,13.75 q -0.25,0 -0.375,-0.375"
           style="fill:#06ab1e;fill-opacity:1" />
        <path
           inkscape:connector-curvature="0"
           id="path1254"
           d="M 19.984375,13.515625 20,13 20.375,13.125 Q 20.75,13.25 21,13.5 q 0.25,0.25 -0.03125,0.53125 l -0.28125,0.28125 0.0625,0.0625 0.0625,0.0625 -0.125,-0.125 Q 20.5625,14.1875 20.375,14.125 L 20.1875,14.0625 20.46875,14.15625 20.75,14.25 20.375,14.125 20,14 20.28125,14.09375 20.5625,14.1875 20.375,14.125 Q 20.1875,14.0625 19.96875,14.03125 L 19.75,14 l 0.109375,0.01563 0.109375,0.01563 0.01563,-0.515625"
           style="fill:#06ab1e;fill-opacity:1" />
        <path
           inkscape:connector-curvature="0"
           id="path1256"
           d="m 22.125,13.625 q 0.125,-0.375 0.5,-0.5 L 23,13 22.875,13.375 q -0.125,0.375 -0.5,0.5 Q 22,14 22.125,13.625"
           style="fill:#06ab1e;fill-opacity:1" />
        <path
           inkscape:connector-curvature="0"
           id="path1258"
           d="m 12.125,14.625 q 0.125,-0.375 0.5,-0.5 0.375,-0.125 0.5,0.25 0.125,0.375 -0.140625,0.640625 L 12.71875,15.28125 12.79688,15.32812 12.875,15.375 12.71875,15.28125 Q 12.5625,15.1875 12.375,15.125 L 12.1875,15.0625 12.46875,15.15625 12.75,15.25 12.375,15.125 12,15 12.125,14.625"
           style="fill:#36e256;fill-opacity:1" />
        <path
           inkscape:connector-curvature="0"
           id="path1260"
           d="m 15,14.5 q 0,-0.5 0.5,-0.5 0.5,0 0.5,0.5 0,0.5 0,1 0,0.5 -0.125,0.875 -0.125,0.375 -0.5,0.5 Q 15,17 14.5,17 H 14 14.375 14.75 14.5 q -0.25,0 -0.46875,0.03125 L 13.8125,17.0625 13.921875,17.046875 14.03125,17.03125 13.890625,16.640625 13.75,16.25 13.84375,16.53125 13.9375,16.8125 13.875,16.625 Q 13.8125,16.4375 13.71875,16.28125 L 13.625,16.125 l 0.04687,0.07813 0.04687,0.07813 0.265625,-0.265625 Q 14.25,15.75 14.125,15.375 14,15 14.5,15 15,15 15,14.5"
           style="fill:#36e256;fill-opacity:1" />
        <path
           inkscape:connector-curvature="0"
           id="path1262"
           d="m 18.25,14.5 q 0,-0.25 0.375,-0.375 Q 19,14 19.5,14 q 0.5,0 0.875,0.125 0.375,0.125 0.5,0.5 L 21,15 v 0.5 q 0,0.5 0.125,0.875 0.125,0.375 0.5,0.5 L 22,17 v 0.53125 0.53125 H 22.09375 22.1875 22 q -0.1875,0 -0.375,0.0625 L 21.4375,18.1875 21.71875,18.09375 22,18 21.625,18.125 q -0.375,0.125 -0.5,0.5 Q 21,19 21,19.5 q 0,0.5 0,1 0,0.5 0.125,0.875 0.125,0.375 0.5,0.5 Q 22,22 22.5,22 H 23 v 0.5 0.5 l -0.125,0.375 q -0.125,0.375 -0.5,0.5 L 22,24 21.625,24.125 q -0.375,0.125 -0.5,0.5 Q 21,25 21,25.5 V 26 H 20.5 20 20.375 20.75 20.5 q -0.25,0 -0.375,0.125 L 20,26.25 20.0625,26.1875 20.125,26.125 19.6875,25.9375 Q 19.25,25.75 19.125,25.375 19,25 19,24.5 19,24 18.875,23.625 18.75,23.25 18.5,23.25 q -0.25,0 -0.5,0.25 -0.25,0.25 -0.5,0.5 -0.25,0.25 -0.25,0.5 0,0.25 0.25,0.5 0.25,0.25 0.25,0.5 0,0.25 -0.375,0.375 -0.375,0.125 -0.75,0 -0.375,-0.125 -0.5,-0.5 Q 16,25 16.125,24.625 16.25,24.25 16.5,24 16.75,23.75 16.875,23.375 L 17,23 17.375,22.875 q 0.375,-0.125 0.5,-0.5 L 18,22 h 0.5 q 0.5,0 0.875,-0.125 0.375,-0.125 0.5,-0.5 Q 20,21 20,20.5 V 20 l -0.125,-0.375 q -0.125,-0.375 -0.5,-0.5 L 19,19 18.625,18.875 Q 18.25,18.75 18.25,18.5 q 0,-0.25 0.375,-0.375 L 19,18 19.375,17.875 Q 19.75,17.75 19.75,17.5 19.75,17.25 19.5,17 19.25,16.75 19.125,16.375 19,16 18.875,15.625 18.75,15.25 18.5,15 18.25,14.75 18.25,14.5 M 18.375,22 H 18 17.875 17.75 18 q 0.25,0 0.5,0 h 0.25 -0.375 M 17.28125,22.90625 17,23 16.90625,23.03125 16.8125,23.0625 17,23 q 0.1875,-0.0625 0.375,-0.125 l 0.1875,-0.0625 -0.28125,0.09375 M 20.625,26 H 21 21.125 21.25 21 q -0.25,0 -0.5,0 h -0.25 0.375 m 2.5,-4 H 23 22.625 22.25 22.5 q 0.25,0 0.5,0 h 0.25 -0.125"
           style="fill:#1c9d34;fill-opacity:1" />
        <path
           inkscape:connector-curvature="0"
           id="path1264"
           d="m 23,14.5 q 0.25,-0.25 0.625,-0.375 0.375,-0.125 0.75,0 0.375,0.125 0.375,0.375 0,0.25 -0.25,0.5 -0.25,0.25 -0.375,0.625 Q 24,16 24,16.5 q 0,0.5 0,1 V 18 L 23.625,17.875 Q 23.25,17.75 23,17.5 22.75,17.25 22.375,17.125 L 22,17 V 16.5 Q 22,16 22.125,15.625 22.25,15.25 22.5,15 22.75,14.75 23,14.5 m 1,3.625 V 18 17.625 17.25 17.5 q 0,0.25 0,0.5 v 0.25 -0.125"
           style="fill:#8d5943;fill-opacity:1" />
        <path
           inkscape:connector-curvature="0"
           id="path1266"
           d="M 24.75,14.5 V 14.25 14.4375 14.625 14.5 q 0,-0.125 -0.09375,-0.21875 l -0.09375,-0.09375 0.04687,0.04687 0.04687,0.04687 0.328125,-0.265625 L 25.3125,13.75 25.28125,13.6875 25.25,13.625 25.3125,13.75 Q 25.375,13.875 25.5,14 L 25.625,14.125 25.4375,13.9375 25.25,13.75 25.5,14 q 0.25,0.25 0.375,0.625 Q 26,15 26.125,15.375 L 26.25,15.75 26.15625,15.46875 26.0625,15.1875 26.125,15.375 q 0.0625,0.1875 0.1875,0.3125 l 0.125,0.125 L 26.375,15.75 26.3125,15.6875 26,16 l -0.3125,0.3125 0.0625,0.0625 0.0625,0.0625 -0.125,-0.125 Q 25.5625,16.1875 25.375,16.125 L 25.1875,16.0625 25.46875,16.15625 25.75,16.25 25.375,16.125 25,16 25.125,15.625 Q 25.25,15.25 24.96875,15 L 24.6875,14.75 24.65625,14.8125 24.625,14.875 24.6875,14.75 Q 24.75,14.625 24.75,14.5 V 14.375 14.5625 14.75 14.5"
           style="fill:#06ab1e;fill-opacity:1" />
        <path
           inkscape:connector-curvature="0"
           id="path1268"
           d="M 0,15.5 V 15 H 0.5 Q 1,15 1,15.5 v 0.5 0.5 q 0,0.5 -0.125,0.875 -0.125,0.375 -0.5,0.5 L 0,18 V 17.5 17 16.5 16 15.5"
           style="fill:#000000;fill-opacity:0" />
        <path
           inkscape:connector-curvature="0"
           id="path1270"
           d="M 1,15.5 V 15 15.375 15.75 15.5 Q 1,15.25 0.875,15.125 L 0.75,15 0.8125,15.0625 0.875,15.125 1.3125,14.9375 1.75,14.75 1.46875,14.84375 1.1875,14.9375 1.375,14.875 Q 1.5625,14.8125 1.71875,14.71875 L 1.875,14.625 1.796875,14.671875 1.71875,14.71875 1.984375,14.984375 Q 2.25,15.25 2.625,15.125 3,15 3,15.5 3,16 2.5,16 2,16 1.5,16 H 1 v -0.5"
           style="fill:#23cc3c;fill-opacity:1" />
        <path
           inkscape:connector-curvature="0"
           id="path1272"
           d="M 11.875,15.375 12,15 12.375,15.125 Q 12.75,15.25 13,15.5 q 0.25,0.25 0.5,0.5 0.25,0.25 0.390625,0.640625 L 14.03125,17.03125 14.140625,17.015625 14.25,17 14.03125,17.03125 Q 13.8125,17.0625 13.625,17.125 L 13.4375,17.1875 13.71875,17.09375 14,17 13.625,17.125 Q 13.25,17.25 13,17.5 q -0.25,0.25 -0.5,0.5 -0.25,0.25 -0.5,0.5 -0.25,0.25 -0.5,0.25 -0.25,0 -0.375,-0.375 Q 11,18 11,17.5 11,17 11.125,16.625 11.25,16.25 11.5,16 q 0.25,-0.25 0.375,-0.625"
           style="fill:#8d5943;fill-opacity:1" />
        <path
           inkscape:connector-curvature="0"
           id="path1274"
           d="M 21,15.5 V 15 l 0.375,-0.125 q 0.375,-0.125 0.640625,0.140625 L 22.28125,15.28125 22.32812,15.20312 22.375,15.125 22.28125,15.28125 Q 22.1875,15.4375 22.125,15.625 L 22.0625,15.8125 22.15625,15.53125 22.25,15.25 22.125,15.625 Q 22,16 22,16.5 V 17 L 21.625,16.875 Q 21.25,16.75 21.125,16.375 21,16 21,15.5"
           style="fill:#36e256;fill-opacity:1" />
        <path
           inkscape:connector-curvature="0"
           id="path1276"
           d="M 24.125,15.625 Q 24.25,15.25 24.5,15 L 24.75,14.75 24.5625,14.9375 24.375,15.125 24.5,15 q 0.125,-0.125 0.1875,-0.25 L 24.75,14.625 24.71875,14.6875 24.6875,14.75 24.96875,15 Q 25.25,15.25 25.125,15.625 L 25,16 24.515625,16.015625 24.03125,16.03125 24.015625,16.140625 24,16.25 24.03125,16.03125 Q 24.0625,15.8125 24.125,15.625 L 24.1875,15.4375 24.09375,15.71875 24,16 24.125,15.625"
           style="fill:#23cc3c;fill-opacity:1" />
        <path
           inkscape:connector-curvature="0"
           id="path1278"
           d="M 29.921875,15.328125 30.09375,14.90625 30.046875,14.828125 30,14.75 30.09375,14.90625 Q 30.1875,15.0625 30.375,15.125 L 30.5625,15.1875 30.28125,15.09375 30,15 l 0.375,0.125 q 0.375,0.125 0.375,0.375 0,0.25 -0.25,0.5 -0.25,0.25 -0.375,0.625 Q 30,17 29.875,17.375 29.75,17.75 29.5,18 q -0.25,0.25 -0.25,0.5 0,0.25 0.25,0.5 0.25,0.25 0.5,0.5 0.25,0.25 0.5,0.5 0.25,0.25 0.375,0.625 L 31,21 H 30.5 Q 30,21 29.875,20.625 29.75,20.25 29.375,20.125 29,20 28.5,20 28,20 28,19.5 q 0,-0.5 0,-1 0,-0.5 0.375,-0.625 0.375,-0.125 0.5,-0.5 L 29,17 V 16.5 16 l 0.375,-0.125 q 0.375,-0.125 0.546875,-0.546875"
           style="fill:#06ab1e;fill-opacity:1" />
        <path
           inkscape:connector-curvature="0"
           id="path1280"
           d="M 24,16.5 V 16 16.375 16.75 16.5 q 0,-0.25 0.03125,-0.46875 L 24.0625,15.8125 24.04687,15.921875 24.03124,16.03125 24.515615,16.01562 25,16 l 0.375,0.125 q 0.375,0.125 0.5,0.5 Q 26,17 26,17.5 q 0,0.5 -0.125,0.875 -0.125,0.375 -0.5,0.5 L 25,19 H 24.5 24 v -0.5 q 0,-0.5 0,-1 0,-0.5 0,-1 m 0,2.125 V 19 19.125 19.25 19 q 0,-0.25 0,-0.5 v -0.25 0.375"
           style="fill:#1c9d34;fill-opacity:1" />
        <path
           inkscape:connector-curvature="0"
           id="path1282"
           d="M 25.875,16.625 25.75,16.25 25.84375,16.53125 25.9375,16.8125 25.875,16.625 q -0.0625,-0.1875 -0.1875,-0.3125 l -0.125,-0.125 0.0625,0.0625 0.0625,0.0625 L 26,16 26.3125,15.6875 26.25,15.625 l -0.0625,-0.0625 0.125,0.125 q 0.125,0.125 0.3125,0.1875 L 26.8125,15.9375 26.53125,15.84375 26.25,15.75 26.625,15.875 Q 27,16 27.5,16 H 28 v 0.5 Q 28,17 28.5,17 H 29 l -0.125,0.375 q -0.125,0.375 -0.5,0.5 Q 28,18 28,18.5 q 0,0.5 0,1 0,0.5 0.5,0.5 0.5,0 0.875,0.125 0.375,0.125 0.5,0.5 Q 30,21 30.5,21 H 31 v 0.5 0.5 h -0.5 q -0.5,0 -1,0 -0.5,0 -1,0 Q 28,22 28,21.5 28,21 27.5,21 27,21 27,20.5 27,20 26.5,20 26,20 26.125,19.625 26.25,19.25 25.96875,18.96875 L 25.6875,18.6875 25.625,18.75 l -0.0625,0.0625 0.125,-0.125 q 0.125,-0.125 0.1875,-0.3125 L 25.9375,18.1875 25.84375,18.46875 25.75,18.75 25.875,18.375 Q 26,18 26,17.5 26,17 25.875,16.625"
           style="fill:#1cc53b;fill-opacity:1" />
        <path
           inkscape:connector-curvature="0"
           id="path1284"
           d="M 28,16.5 V 16 H 28.5 29 V 16.5 17 H 28.5 Q 28,17 28,16.5"
           style="fill:#23cc3c;fill-opacity:1" />
        <path
           inkscape:connector-curvature="0"
           id="path1286"
           d="m 2,17.5 q 0.25,-0.25 0.5,-0.25 0.25,0 0.25,0.25 0,0.25 -0.25,0.5 -0.25,0.25 -0.375,0.625 -0.125,0.375 0,0.75 0.125,0.375 0.5,0.5 Q 3,20 3.375,19.875 3.75,19.75 4,19.5 q 0.25,-0.25 0.5,-0.25 0.25,0 0.375,0.375 L 5,20 4.875,20.375 Q 4.75,20.75 4.5,21 4.25,21.25 4,21.5 3.75,21.75 3.5,22 3.25,22.25 3,22.5 2.75,22.75 2.5,22.75 2.25,22.75 2,22.5 1.75,22.25 1.390625,22.109375 L 1.03125,21.96875 1.046875,22.078125 1.0625,22.1875 1.03125,21.96875 Q 1,21.75 1,21.5 V 21.25 21.625 22 21.5 Q 1,21 0.875,20.625 0.75,20.25 0.375,20.125 L 0,20 V 19.5 19 L 0.375,18.875 Q 0.75,18.75 1,18.5 1.25,18.25 1.5,18 1.75,17.75 2,17.5"
           style="fill:#51952c;fill-opacity:1" />
        <path
           inkscape:connector-curvature="0"
           id="path1288"
           d="M 10,17.5 V 17 l 0.515625,0.01563 0.515625,0.01563 0.01563,-0.109375 0.01563,-0.109375 -0.03125,0.21875 Q 11,17.25 11,17.5 V 17.75 17.375 17 17.5 q 0,0.5 0.125,0.875 0.125,0.375 0.375,0.375 0.25,0 0.5,-0.25 0.25,-0.25 0.5,-0.5 l 0.25,-0.25 0.28125,0.28125 0.28125,0.28125 0.0625,-0.0625 0.0625,-0.0625 -0.125,0.125 q -0.125,0.125 -0.1875,0.3125 L 13.0625,18.8125 13.15625,18.53125 13.25,18.25 13.125,18.625 Q 13,19 13.5,19 14,19 14,19.5 14,20 14.5,20 H 15 v 0.5 q 0,0.5 0,1 0,0.5 0,1 0,0.5 0.125,0.875 L 15.25,23.75 15.15625,23.46875 15.0625,23.1875 15.125,23.375 q 0.0625,0.1875 0.15625,0.28125 L 15.375,23.75 15.32813,23.70313 15.28126,23.65626 15.015635,23.953135 Q 14.75,24.25 14.375,24.125 14,24 13.5,24 13,24 12.625,23.875 12.25,23.75 11.984375,24.015625 l -0.265625,0.265625 0.04687,0.07813 0.04687,0.07813 -0.09375,-0.15625 Q 11.625,24.125 11.5,24 L 11.375,23.875 11.5625,24.0625 11.75,24.25 11.5,24 Q 11.25,23.75 11,23.5 10.75,23.25 10.5,23 10.25,22.75 10,22.5 9.75,22.25 9.375,22.125 9,22 8.625,22.125 L 8.25,22.25 8.53125,22.15625 8.8125,22.0625 8.625,22.125 Q 8.4375,22.1875 8.28125,22.28125 L 8.125,22.375 8.203125,22.328125 8.28125,22.28125 8.015625,22.015625 Q 7.75,21.75 7.875,21.375 8,21 7.5,21 7,21 7,21.5 7,22 6.5,22 6,22 6,22.5 6,23 5.5,23 5,23 5,23.5 V 24 H 4.5 Q 4,24 3.625,23.875 3.25,23.75 3.25,23.5 3.25,23.25 3.625,23.125 4,23 4.125,22.625 4.25,22.25 4.625,22.125 5,22 5.125,21.625 5.25,21.25 4.984375,20.984375 L 4.71875,20.71875 4.671875,20.796875 4.625,20.875 4.71875,20.71875 Q 4.8125,20.5625 4.875,20.375 L 4.9375,20.1875 4.84375,20.46875 4.75,20.75 4.875,20.375 5,20 H 5.5 Q 6,20 6,19.5 V 19 H 6.5 Q 7,19 7,19.5 7,20 7.5,20 8,20 8,19.5 8,19 8.5,19 9,19 9,18.5 9,18 9.5,18 10,18 10,17.5 M 12.8125,17.6875 12.75,17.75 12.5625,17.9375 12.375,18.125 12.5,18 q 0.125,-0.125 0.25,-0.25 l 0.125,-0.125 -0.0625,0.0625"
           style="fill:#23cc3c;fill-opacity:1" />
        <path
           inkscape:connector-curvature="0"
           id="path1290"
           d="m 13,17.5 q 0.25,-0.25 0.625,-0.375 L 14,17 v 0.5 q 0,0.5 -0.375,0.625 L 13.25,18.25 13.53125,18.15625 13.8125,18.0625 13.625,18.125 q -0.1875,0.0625 -0.3125,0.1875 l -0.125,0.125 L 13.25,18.375 13.3125,18.3125 13.03125,18.03125 12.75,17.75 13,17.5 M 12.9375,17.5625 12.75,17.75 12.6875,17.8125 12.625,17.875 12.75,17.75 Q 12.875,17.625 13,17.5 l 0.125,-0.125 -0.1875,0.1875"
           style="fill:#06ab1e;fill-opacity:1" />
        <path
           inkscape:connector-curvature="0"
           id="path1292"
           d="M 14,17.5 V 17 h 0.5 q 0.5,0 0.875,-0.125 L 15.75,16.75 15.46875,16.84375 15.1875,16.9375 15.375,16.875 q 0.1875,-0.0625 0.3125,-0.1875 l 0.125,-0.125 -0.0625,0.0625 -0.0625,0.0625 0.28125,0.28125 Q 16.25,17.25 16.625,17.125 17,17 17.5,17 q 0.5,0 0.875,0.125 0.375,0.125 0.5,0.5 L 19,18 18.625,18.125 Q 18.25,18.25 18.25,18.5 V 18.75 18.5625 18.375 18.5 q 0,0.125 0.09375,0.21875 l 0.09375,0.09375 -0.04687,-0.04687 -0.04687,-0.04687 -0.296875,0.265625 Q 17.75,19.25 17.375,19.125 17,19 16.625,18.875 16.25,18.75 15.984375,19.046875 l -0.265625,0.296875 0.04687,0.04687 0.04687,0.04687 -0.09375,-0.09375 Q 15.625,19.25 15.5,19.25 H 15.375 15.5625 15.75 15.5 q -0.25,0 -0.375,0.375 L 15,20 H 14.5 Q 14,20 14,19.5 14,19 13.5,19 13,19 13.125,18.625 13.25,18.25 13.625,18.125 14,18 14,17.5"
           style="fill:#03a81e;fill-opacity:1" />
        <path
           inkscape:connector-curvature="0"
           id="path1294"
           d="M 18.875,17.625 18.75,17.25 18.84375,17.53125 18.9375,17.8125 18.875,17.625 q -0.0625,-0.1875 -0.1875,-0.3125 l -0.125,-0.125 0.0625,0.0625 0.0625,0.0625 0.296875,-0.296875 0.296875,-0.296875 -0.04687,-0.07813 -0.04687,-0.07813 0.09375,0.15625 Q 19.375,16.875 19.5,17 L 19.625,17.125 19.4375,16.9375 19.25,16.75 19.5,17 q 0.25,0.25 0.25,0.5 0,0.25 -0.375,0.375 L 19,18 18.875,17.625"
           style="fill:#23cc3c;fill-opacity:1" />
        <path
           inkscape:connector-curvature="0"
           id="path1296"
           d="M 22,17.53125 V 17 l 0.375,0.125 Q 22.75,17.25 23,17.5 q 0.25,0.25 0.625,0.375 L 24,18 v 0.5 q 0,0.5 0,1 V 20 l 0.125,0.375 q 0.125,0.375 0.5,0.5 0.375,0.125 0.75,0.25 0.375,0.125 0.5,0.5 L 26,22 25.875,22.375 q -0.125,0.375 -0.5,0.5 -0.375,0.125 -0.75,0 -0.375,-0.125 -0.5,-0.5 Q 24,22 23.875,21.625 23.75,21.25 23.5,21 23.25,20.75 23,20.5 22.75,20.25 22.375,20.125 L 22,20 22.28125,20.09375 22.5625,20.1875 22.375,20.125 Q 22.1875,20.0625 21.96875,20.03125 L 21.75,20 l 0.109375,0.01563 0.109375,0.01563 V 19.5 18.96875 L 21.859375,18.984375 21.75,19 21.96875,18.96875 Q 22.1875,18.9375 22.375,18.875 L 22.5625,18.8125 22.28125,18.90625 22,19 22.375,18.875 Q 22.75,18.75 22.75,18.5 q 0,-0.25 -0.375,-0.375 L 22,18 22.28125,18.09375 22.5625,18.1875 22.375,18.125 Q 22.1875,18.0625 22,18.0625 H 21.8125 21.90625 22 V 17.53125 M 24,18.375 V 18 17.875 17.75 18 q 0,0.25 0,0.5 v 0.25 -0.375"
           style="fill:#51952c;fill-opacity:1" />
        <path
           inkscape:connector-curvature="0"
           id="path1298"
           d="M 3.125,18.625 Q 3.25,18.25 3.625,18.125 4,18 4.5,18 5,18 5.5,18 6,18 6,18.5 V 19 L 5.625,18.875 Q 5.25,18.75 4.984375,19.046875 L 4.71875,19.34375 4.765625,19.390625 4.8125,19.4375 4.71875,19.34375 Q 4.625,19.25 4.5,19.25 H 4.375 4.5625 4.75 4.5 4.25 4.4375 4.625 4.5 q -0.125,0 -0.25,0.0625 L 4.125,19.375 4.1875,19.34375 4.25,19.3125 4,19.03125 Q 3.75,18.75 3.375,18.875 3,19 3.125,18.625"
           style="fill:#23cc3c;fill-opacity:1" />
        <path
           inkscape:connector-curvature="0"
           id="path1300"
           d="m 21.125,18.625 q 0.125,-0.375 0.5,-0.5 0.375,-0.125 0.75,0 0.375,0.125 0.375,0.375 0,0.25 -0.375,0.375 Q 22,19 21.515625,19.015625 L 21.03125,19.03125 21.015625,19.140625 21,19.25 21.03125,19.03125 Q 21.0625,18.8125 21.125,18.625 L 21.1875,18.4375 21.09375,18.71875 21,19 21.125,18.625"
           style="fill:#8d5943;fill-opacity:1" />
        <path
           inkscape:connector-curvature="0"
           id="path1302"
           d="M 4.875,19.625 4.75,19.25 4.84375,19.53125 4.9375,19.8125 4.875,19.625 Q 4.8125,19.4375 4.71875,19.34375 L 4.625,19.25 4.671875,19.296875 4.71875,19.34375 4.984375,19.046875 Q 5.25,18.75 5.625,18.875 L 6,19 v 0.5 Q 6,20 5.5,20 H 5 L 4.875,19.625"
           style="fill:#06ab1e;fill-opacity:1" />
        <path
           inkscape:connector-curvature="0"
           id="path1304"
           d="M 15.125,19.625 Q 15.25,19.25 15.5,19.25 q 0.25,0 0.375,0.375 Q 16,20 16,20.5 q 0,0.5 0.125,0.875 0.125,0.375 0.5,0.5 Q 17,22 17.5,22 H 18 l -0.125,0.375 q -0.125,0.375 -0.5,0.5 Q 17,23 16.625,23.125 16.25,23.25 16,23.5 q -0.25,0.25 -0.5,0.25 -0.25,0 -0.375,-0.375 Q 15,23 15,22.5 q 0,-0.5 0,-1 0,-0.5 0,-1 V 20 l 0.125,-0.375 m 3,2.375 H 18 17.625 17.25 17.5 q 0.25,0 0.5,0 h 0.25 -0.125"
           style="fill:#8d5943;fill-opacity:1" />
        <path
           inkscape:connector-curvature="0"
           id="path1306"
           d="M 15.875,19.625 15.75,19.25 15.84375,19.53125 15.9375,19.8125 15.875,19.625 Q 15.8125,19.4375 15.71875,19.34375 L 15.625,19.25 l 0.04687,0.04687 0.04687,0.04687 0.265625,-0.296875 Q 16.25,18.75 16.625,18.875 17,19 17.375,19.125 17.75,19.25 18.046875,18.984375 L 18.34375,18.71875 18.296875,18.671875 18.25,18.625 18.34375,18.71875 Q 18.4375,18.8125 18.625,18.875 L 18.8125,18.9375 18.53125,18.84375 18.25,18.75 18.625,18.875 19,19 v 0.5 Q 19,20 19.5,20 H 20 v 0.5 q 0,0.5 -0.125,0.875 -0.125,0.375 -0.5,0.5 Q 19,22 18.5,22 18,22 17.5,22 17,22 16.625,21.875 16.25,21.75 16.125,21.375 16,21 16,20.5 16,20 15.875,19.625"
           style="fill:#23cc3c;fill-opacity:1" />
        <path
           inkscape:connector-curvature="0"
           id="path1308"
           d="M 19,19.5 V 19 l 0.375,0.125 q 0.375,0.125 0.5,0.5 L 20,20 H 19.5 Q 19,20 19,19.5"
           style="fill:#06ab1e;fill-opacity:1" />
        <path
           inkscape:connector-curvature="0"
           id="path1310"
           d="M 21,19.5 V 19 19.375 19.75 19.5 q 0,-0.25 0.03125,-0.46875 L 21.0625,18.8125 21.04687,18.921875 21.03124,19.03125 21.515615,19.01562 22,19 H 21.625 21.25 21.5 q 0.25,0 0.46875,-0.03125 L 22.1875,18.9375 22.078125,18.95313 21.96875,18.96876 V 19.5 20.03125 l 0.109375,0.01563 0.109375,0.01563 -0.21875,-0.03125 Q 21.75,20 21.5,20 H 21.25 21.625 22 21.5 21 v -0.5 m 0,0.125 V 20 20.125 20.25 20 q 0,-0.25 0,-0.5 v -0.25 0.375"
           style="fill:#06ab1e;fill-opacity:1" />
        <path
           inkscape:connector-curvature="0"
           id="path1312"
           d="M 24,19.5 V 19 h 0.5 0.5 v 0.5 Q 25,20 24.5,20 H 24 v -0.5 m 0,-0.625 V 19 19.375 19.75 19.5 q 0,-0.25 0,-0.5 v -0.25 0.125"
           style="fill:#36e256;fill-opacity:1" />
        <path
           inkscape:connector-curvature="0"
           id="path1314"
           d="M 25,19.5 V 19 L 25.375,18.875 25.75,18.75 25.46875,18.84375 25.1875,18.9375 25.375,18.875 q 0.1875,-0.0625 0.3125,-0.1875 l 0.125,-0.125 -0.0625,0.0625 -0.0625,0.0625 0.28125,0.28125 Q 26.25,19.25 26.125,19.625 26,20 26.5,20 q 0.5,0 0.5,0.5 0,0.5 0.5,0.5 0.5,0 0.5,0.5 0,0.5 0.5,0.5 0.5,0 1,0 0.5,0 1,0 H 31 l -0.125,0.375 Q 30.75,22.75 30.5,23 L 30.25,23.25 30.4375,23.0625 30.625,22.875 30.5,23 q -0.125,0.125 -0.1875,0.25 L 30.25,23.375 30.28125,23.3125 30.3125,23.25 30.03125,23 Q 29.75,22.75 29.375,22.875 L 29,23 H 28.5 Q 28,23 27.5,23 27,23 27,22.5 27,22 26.5,22 H 26 L 25.875,21.625 Q 25.75,21.25 25.375,21.125 25,21 24.625,20.875 24.25,20.75 24.125,20.375 L 24,20 h 0.5 Q 25,20 25,19.5"
           style="fill:#23cc3c;fill-opacity:1" />
        <path
           inkscape:connector-curvature="0"
           id="path1316"
           d="M 0,20.5 V 20 l 0.375,0.125 q 0.375,0.125 0.5,0.5 Q 1,21 1,21.5 1,22 1.125,22.375 1.25,22.75 1.5,23 1.75,23.25 2,23.5 2.25,23.75 2.5,24 2.75,24.25 3,24.5 3.25,24.75 3.5,25 3.75,25.25 4,25.5 4.25,25.75 4.625,25.875 5,26 5.5,26 q 0.5,0 1,0 0.5,0 0.875,0.125 0.375,0.125 0.5,0.5 Q 8,27 8,27.5 8,28 8.125,28.375 8.25,28.75 8.625,28.875 9,29 9.5,29 q 0.5,0 1,0 0.5,0 1,0 H 12 l 0.125,0.375 Q 12.25,29.75 12.5,30 q 0.25,0.25 0.375,0.625 0.125,0.375 0,0.75 Q 12.75,31.75 12.5,31.75 12.25,31.75 12,31.5 11.75,31.25 11.375,31.125 11,31 10.625,30.875 10.25,30.75 10,30.5 9.75,30.25 9.375,30.125 9,30 8.5,30 8,30 7.5,30 7,30 6.625,30.125 6.25,30.25 6.25,30.5 6.25,30.75 6.5,31 6.75,31.25 6.875,31.625 7,32 7.125,32.375 7.25,32.75 7.5,33 7.75,33.25 8,33.5 8.25,33.75 8.5,34 8.75,34.25 9,34.5 9.25,34.75 9.625,34.875 10,35 10.5,35 11,35 11.375,35.125 11.75,35.25 12,35.5 q 0.25,0.25 0.5,0.5 0.25,0.25 0.5,0.5 0.25,0.25 0.5,0.5 0.25,0.25 0.375,0.625 Q 14,38 14.125,38.375 14.25,38.75 14.5,39 q 0.25,0.25 0.25,0.5 0,0.25 -0.25,0.5 -0.25,0.25 -0.375,0.625 Q 14,41 13.875,41.375 13.75,41.75 13.5,42 13.25,42.25 13.125,42.625 13,43 13,43.5 q 0,0.5 0,1 0,0.5 -0.125,0.875 Q 12.75,45.75 12.5,46 12.25,46.25 12,46.5 11.75,46.75 11.5,47 11.25,47.25 11.125,47.625 L 11,48 H 10.5 10 9.5 9 8.5 8 7.5 7 6.5 6 5.5 5 4.5 4 3.5 3 2.5 2 1.5 1 0.5 0 V 47.5 47 46.5 46 45.5 45 44.5 44 43.5 43 42.5 42 41.5 41 40.5 40 39.5 39 38.5 38 37.5 37 36.5 36 35.5 35 34.5 34 33.5 33 32.5 32 31.5 31 30.5 30 29.5 29 28.5 28 27.5 27 26.5 26 25.5 25 24.5 24 23.5 23 22.5 22 21.5 21 20.5"
           style="fill:#000000;fill-opacity:0" />
        <path
           inkscape:connector-curvature="0"
           id="path1318"
           d="M 21,20.5 V 20 h 0.5 q 0.5,0 0.875,0.125 0.375,0.125 0.625,0.375 0.25,0.25 0.5,0.5 0.25,0.25 0.375,0.625 L 24,22 h -0.5 q -0.5,0 -1,0 -0.5,0 -0.875,-0.125 -0.375,-0.125 -0.5,-0.5 Q 21,21 21,20.5 M 24.03125,22.09375 24,22 23.90625,21.71875 23.8125,21.4375 23.875,21.625 Q 23.9375,21.8125 24,22 l 0.0625,0.1875 -0.03125,-0.09375 M 21,19.875 V 20 20.375 20.75 20.5 q 0,-0.25 0,-0.5 v -0.25 0.125"
           style="fill:#36e256;fill-opacity:1" />
        <path
           inkscape:connector-curvature="0"
           id="path1320"
           d="M 4,21.5 Q 4.25,21.25 4.5,21 L 4.75,20.75 4.5625,20.9375 4.375,21.125 4.5,21 Q 4.625,20.875 4.71875,20.71875 L 4.8125,20.5625 4.765625,20.640625 4.71875,20.71875 4.984375,20.984375 Q 5.25,21.25 5.125,21.625 5,22 4.625,22.125 4.25,22.25 4.125,22.625 4,23 3.625,23.125 3.25,23.25 3.25,23.5 q 0,0.25 0.375,0.375 Q 4,24 4.5,24 H 5 v 0.5 Q 5,25 5.5,25 6,25 6.375,25.125 6.75,25.25 7.03125,24.96875 L 7.3125,24.6875 7.25,24.625 7.1875,24.5625 l 0.125,0.125 q 0.125,0.125 0.3125,0.1875 L 7.8125,24.9375 7.53125,24.84375 7.25,24.75 7.625,24.875 Q 8,25 8.375,25.125 8.75,25.25 9,25.5 q 0.25,0.25 0.5,0.25 0.25,0 0.5,-0.25 0.25,-0.25 0.5,-0.25 0.25,0 0.375,0.375 Q 11,26 11.125,26.375 11.25,26.75 11.5,27 11.75,27.25 11.875,27.625 12,28 12,28.5 V 29 h -0.5 q -0.5,0 -1,0 -0.5,0 -1,0 Q 9,29 8.625,28.875 8.25,28.75 8.125,28.375 8,28 8,27.5 8,27 7.875,26.625 7.75,26.25 7.375,26.125 7,26 6.5,26 6,26 5.5,26 5,26 4.625,25.875 4.25,25.75 4,25.5 3.75,25.25 3.5,25 3.25,24.75 3,24.5 2.75,24.25 2.5,24 2.25,23.75 2,23.5 1.75,23.25 1.5,23 1.25,22.75 1.125,22.375 L 1,22 1.09375,22.28125 1.1875,22.5625 1.125,22.375 Q 1.0625,22.1875 1.03125,21.96875 L 1,21.75 1.015625,21.859375 1.03125,21.96875 1.390625,22.109375 Q 1.75,22.25 2,22.5 2.25,22.75 2.5,22.75 2.75,22.75 3,22.5 3.25,22.25 3.5,22 3.75,21.75 4,21.5"
           style="fill:#06ab1e;fill-opacity:1" />
        <path
           inkscape:connector-curvature="0"
           id="path1322"
           d="M 7,21.5 Q 7,21 7.5,21 8,21 7.875,21.375 7.75,21.75 8.015625,22.015625 L 8.28125,22.28125 8.359375,22.234375 8.4375,22.1875 8.28125,22.28125 Q 8.125,22.375 8,22.5 L 7.875,22.625 8.0625,22.4375 8.25,22.25 8,22.5 Q 7.75,22.75 7.5,23 7.25,23.25 7.125,23.625 L 7,24 H 6.5 Q 6,24 5.5,24 H 5 V 23.5 Q 5,23 5.5,23 6,23 6,22.5 6,22 6.5,22 7,22 7,21.5"
           style="fill:#06ab1e;fill-opacity:1" />
        <path
           inkscape:connector-curvature="0"
           id="path1324"
           d="M 8,22.5 Q 8.25,22.25 8.625,22.125 9,22 9.375,22.125 9.75,22.25 10,22.5 q 0.25,0.25 0.5,0.5 0.25,0.25 0.5,0.5 0.25,0.25 0.5,0.5 0.25,0.25 0.375,0.625 0.125,0.375 0.25,0.75 0.125,0.375 0.53125,0.5 L 13.0625,26 V 25.90625 25.8125 26 q 0,0.1875 0.0625,0.375 L 13.1875,26.5625 13.09375,26.28125 13,26 13.125,26.375 Q 13.25,26.75 13.5,27 q 0.25,0.25 0.375,0.625 0.125,0.375 0,0.75 -0.125,0.375 -0.5,0.5 Q 13,29 12.5,29 H 12 V 28.5 Q 12,28 11.875,27.625 11.75,27.25 11.5,27 11.25,26.75 11.125,26.375 11,26 10.875,25.625 10.75,25.25 10.5,25.25 10.25,25.25 10,25.5 9.75,25.75 9.5,25.75 9.25,25.75 9,25.5 8.75,25.25 8.375,25.125 8,25 7.625,24.875 7.25,24.75 7.125,24.375 L 7,24 7.125,23.625 Q 7.25,23.25 7.5,23 7.75,22.75 8,22.5"
           style="fill:#51952c;fill-opacity:1" />
        <path
           inkscape:connector-curvature="0"
           id="path1326"
           d="M 23,22.5 V 22 h 0.5 0.5 l 0.125,0.375 q 0.125,0.375 0.5,0.5 0.375,0.125 0.75,0 0.375,-0.125 0.5,-0.5 L 26,22 h 0.5 q 0.5,0 0.5,0.5 0,0.5 0.5,0.5 0.5,0 1,0 H 29 v 0.5 q 0,0.5 0.375,0.625 0.375,0.125 0.5,0.5 0.125,0.375 0,0.75 -0.125,0.375 -0.5,0.5 -0.375,0.125 -0.75,0 -0.375,-0.125 -0.65625,0.15625 l -0.28125,0.28125 0.0625,0.0625 0.0625,0.0625 -0.125,-0.125 Q 27.5625,26.1875 27.375,26.125 L 27.1875,26.0625 27.46875,26.15625 27.75,26.25 27.375,26.125 27,26 V 25.5 Q 27,25 26.5,25 H 26 V 24.5 Q 26,24 25.5,24 25,24 25,24.5 V 25 25.5 Q 25,26 24.5,26 24,26 24,25.5 24,25 23.5,25 23,25 22.5,25 22,25 22,24.5 V 24 L 22.375,23.875 22.75,23.75 22.46875,23.84375 22.1875,23.9375 22.375,23.875 q 0.1875,-0.0625 0.3125,-0.1875 l 0.125,-0.125 -0.0625,0.0625 -0.0625,0.0625 0.28125,0.28125 Q 23.25,24.25 23.625,24.125 24,24 23.875,23.625 23.75,23.25 23.375,23.125 L 23,23 V 22.5 M 24.09375,22.28125 24,22 23.96875,21.90625 23.9375,21.8125 24,22 q 0.0625,0.1875 0.125,0.375 l 0.0625,0.1875 -0.09375,-0.28125 M 23.375,22 H 23 22.875 22.75 23 q 0.25,0 0.5,0 h 0.25 -0.375"
           style="fill:#03a81e;fill-opacity:1" />
        <path
           inkscape:connector-curvature="0"
           id="path1328"
           d="m 16,23.5 q 0.25,-0.25 0.625,-0.375 L 17,23 16.875,23.375 Q 16.75,23.75 16.5,24 16.25,24.25 16.125,24.625 L 16,25 16.09375,24.71875 16.1875,24.4375 16.125,24.625 Q 16.0625,24.8125 16.0625,25 V 25.1875 25.09375 25 H 15.53125 Q 15,25 14.5,25 q -0.5,0 -0.875,0.125 -0.375,0.125 -0.5,0.5 L 13,26 13.09375,25.71875 13.1875,25.4375 13.125,25.625 Q 13.0625,25.8125 13.0625,26 V 26.1875 26.09375 26 L 12.65625,25.875 Q 12.25,25.75 12.125,25.375 12,25 11.875,24.625 L 11.75,24.25 11.84375,24.53125 11.9375,24.8125 11.875,24.625 Q 11.8125,24.4375 11.71875,24.28125 L 11.625,24.125 l 0.04687,0.07813 0.04687,0.07813 0.265625,-0.265625 Q 12.25,23.75 12.625,23.875 13,24 13.5,24 q 0.5,0 0.875,0.125 0.375,0.125 0.640625,-0.171875 l 0.265625,-0.296875 -0.04687,-0.04687 -0.04687,-0.04687 0.09375,0.09375 Q 15.375,23.75 15.5,23.75 H 15.625 15.4375 15.25 15.5 q 0.25,0 0.5,-0.25 M 17.09375,22.96875 17,23 16.71875,23.09375 16.4375,23.1875 16.625,23.125 Q 16.8125,23.0625 17,23 l 0.1875,-0.0625 -0.09375,0.03125"
           style="fill:#06ab1e;fill-opacity:1" />
        <path
           inkscape:connector-curvature="0"
           id="path1330"
           d="m 18,23.5 q 0.25,-0.25 0.5,-0.25 0.25,0 0.375,0.375 Q 19,24 19,24.5 q 0,0.5 0.125,0.875 0.125,0.375 0.5625,0.5625 L 20.125,26.125 20.1875,26.0625 20.25,26 20.125,26.125 Q 20,26.25 20,26.5 V 26.75 26.375 26 26.5 q 0,0.5 0,1 0,0.5 0,1 0,0.5 -0.125,0.875 Q 19.75,29.75 19.5,30 19.25,30.25 19,30.5 18.75,30.75 18.5,31 18.25,31.25 18.125,31.625 18,32 18,32.5 q 0,0.5 0,1 0,0.5 0.125,0.875 0.125,0.375 0.375,0.625 0.25,0.25 0.5,0.5 0.25,0.25 0.5,0.5 0.25,0.25 0.375,0.625 0.125,0.375 0,0.75 Q 19.75,37.75 19.5,38 19.25,38.25 19.125,38.625 19,39 19,39.5 19,40 19.125,40.375 19.25,40.75 19.5,41 q 0.25,0.25 0.375,0.625 0.125,0.375 0,0.75 Q 19.75,42.75 19.5,43 q -0.25,0.25 -0.25,0.5 0,0.25 0.25,0.5 0.25,0.25 0.5,0.5 0.25,0.25 0.5,0.5 0.25,0.25 0.5,0.5 0.25,0.25 0.625,0.375 0.375,0.125 0.75,0.25 0.375,0.125 0.5,0.5 Q 23,47 23,47.5 V 48 H 22.5 22 21.5 21 20.5 20 19.5 19 l -0.125,-0.375 q -0.125,-0.375 -0.5,-0.5 -0.375,-0.125 -0.75,0 -0.375,0.125 -0.5,0.5 L 17,48 H 16.5 16 15.5 15 14.5 14 13.5 13 12.5 12 11.5 11 l 0.125,-0.375 Q 11.25,47.25 11.5,47 11.75,46.75 12,46.5 12.25,46.25 12.5,46 12.75,45.75 12.875,45.375 13,45 13,44.5 13,44 13,43.5 13,43 13.125,42.625 13.25,42.25 13.5,42 13.75,41.75 13.875,41.375 14,41 14.125,40.625 14.25,40.25 14.5,40 14.75,39.75 14.75,39.5 14.75,39.25 14.5,39 14.25,38.75 14.125,38.375 14,38 13.875,37.625 13.75,37.25 13.5,37 13.25,36.75 13,36.5 12.75,36.25 12.5,36 12.25,35.75 12,35.5 11.75,35.25 11.375,35.125 11,35 10.5,35 10,35 9.625,34.875 9.25,34.75 9,34.5 8.75,34.25 8.5,34 8.25,33.75 8,33.5 7.75,33.25 7.5,33 7.25,32.75 7.125,32.375 7,32 6.875,31.625 6.75,31.25 6.5,31 6.25,30.75 6.25,30.5 6.25,30.25 6.625,30.125 7,30 7.5,30 8,30 8.5,30 9,30 9.375,30.125 9.75,30.25 10,30.5 10.25,30.75 10.625,30.875 11,31 11.375,31.125 11.75,31.25 12,31.5 q 0.25,0.25 0.5,0.25 0.25,0 0.375,-0.375 Q 13,31 12.875,30.625 12.75,30.25 12.5,30 12.25,29.75 12.125,29.375 L 12,29 h 0.5 q 0.5,0 0.875,-0.125 0.375,-0.125 0.5,-0.5 Q 14,28 13.875,27.625 13.75,27.25 13.5,27 13.25,26.75 13.125,26.375 13,26 13.125,25.625 13.25,25.25 13.625,25.125 14,25 14.5,25 15,25 15.53125,25 H 16.0625 V 24.90625 24.8125 25 q 0,0.1875 0.0625,0.375 L 16.1875,25.5625 16.09375,25.28125 16,25 l 0.125,0.375 q 0.125,0.375 0.5,0.5 0.375,0.125 0.75,0 0.375,-0.125 0.375,-0.375 0,-0.25 -0.25,-0.5 -0.25,-0.25 -0.25,-0.5 0,-0.25 0.25,-0.5 0.25,-0.25 0.5,-0.5"
           style="fill:#8d5943;fill-opacity:1" />
        <path
           inkscape:connector-curvature="0"
           id="path1332"
           d="M 22.875,23.375 23,23 l 0.375,0.125 q 0.375,0.125 0.5,0.5 Q 24,24 23.625,24.125 23.25,24.25 22.96875,23.96875 L 22.6875,23.6875 22.625,23.75 l -0.0625,0.0625 0.125,-0.125 q 0.125,-0.125 0.1875,-0.3125 L 22.9375,23.1875 22.84375,23.46875 22.75,23.75 22.875,23.375"
           style="fill:#06ab1e;fill-opacity:1" />
        <path
           inkscape:connector-curvature="0"
           id="path1334"
           d="M 29,23.5 V 23 l 0.375,-0.125 Q 29.75,22.75 30.03125,23 L 30.3125,23.25 30.34375,23.1875 30.375,23.125 30.3125,23.25 Q 30.25,23.375 30.25,23.5 V 23.625 23.4375 23.25 23.5 q 0,0.25 0.25,0.5 0.25,0.25 0.375,0.625 0.125,0.375 0,0.75 Q 30.75,25.75 30.5,26 30.25,26.25 30.125,26.625 30,27 30,27.5 q 0,0.5 -0.125,0.875 -0.125,0.375 -0.5,0.5 -0.375,0.125 -0.75,0 -0.375,-0.125 -0.5,-0.5 Q 28,28 28,27.5 28,27 27.875,26.625 L 27.75,26.25 27.84375,26.53125 27.9375,26.8125 27.875,26.625 q -0.0625,-0.1875 -0.1875,-0.3125 l -0.125,-0.125 0.0625,0.0625 0.0625,0.0625 0.28125,-0.28125 Q 28.25,25.75 28.625,25.875 q 0.375,0.125 0.75,0 0.375,-0.125 0.5,-0.5 0.125,-0.375 0,-0.75 -0.125,-0.375 -0.5,-0.5 Q 29,24 29,23.5"
           style="fill:#06ab1e;fill-opacity:1" />
        <path
           inkscape:connector-curvature="0"
           id="path1336"
           d="M 5,24.5 V 24 h 0.5 q 0.5,0 1,0 H 7 L 7.125,24.375 7.25,24.75 7.15625,24.46875 7.0625,24.1875 7.125,24.375 q 0.0625,0.1875 0.1875,0.3125 l 0.125,0.125 L 7.375,24.75 7.3125,24.6875 7.03125,24.96875 Q 6.75,25.25 6.375,25.125 6,25 5.5,25 5,25 5,24.5"
           style="fill:#23cc3c;fill-opacity:1" />
        <path
           inkscape:connector-curvature="0"
           id="path1338"
           d="m 21.125,24.625 q 0.125,-0.375 0.5,-0.5 L 22,24 v 0.5 q 0,0.5 0.5,0.5 0.5,0 1,0 0.5,0 0.5,0.5 0,0.5 0.5,0.5 0.5,0 0.5,-0.5 V 25 h 0.5 0.5 0.5 Q 27,25 27,25.5 V 26 l -0.375,0.125 q -0.375,0.125 -0.5,0.5 Q 26,27 26,27.5 q 0,0.5 -0.125,0.875 -0.125,0.375 -0.5,0.5 Q 25,29 24.5,29 24,29 23.625,28.875 23.25,28.75 23.125,28.375 23,28 23,27.5 23,27 22.875,26.625 22.75,26.25 22.375,26.125 22,26 21.5,26 H 21 V 25.5 Q 21,25 21.125,24.625 M 20.875,26 H 21 21.375 21.75 21.5 q -0.25,0 -0.5,0 h -0.25 0.125"
           style="fill:#06ab1e;fill-opacity:1" />
        <path
           inkscape:connector-curvature="0"
           id="path1340"
           d="M 25,24.5 Q 25,24 25.5,24 26,24 26,24.5 V 25 H 25.5 25 v -0.5"
           style="fill:#23cc3c;fill-opacity:1" />
        <path
           inkscape:connector-curvature="0"
           id="path1342"
           d="m 17.125,47.625 q 0.125,-0.375 0.5,-0.5 0.375,-0.125 0.75,0 0.375,0.125 0.5,0.5 L 19,48 H 18.5 18 17.5 17 l 0.125,-0.375"
           style="fill:#000000;fill-opacity:0" />
      </g>
      <path
         sodipodi:nodetypes="ccccc"
         inkscape:connector-curvature="0"
         id="rect1346"
         d="m 133.73861,94.014971 75.03417,-0.413412 -0.82682,63.251951 -83.71582,1.44694 z"
         style="fill:#4d4d4d;fill-opacity:1;stroke:none;stroke-width:1.26065385;stroke-miterlimit:4;stroke-dasharray:none;stroke-opacity:1" />
      <rect
         y="96.115601"
         x="112.99065"
         height="59.531246"
         width="93.017578"
         id="rect1346-5"
         style="fill:#f9f9f9;fill-opacity:1;stroke:none;stroke-width:1.2021718;stroke-miterlimit:4;stroke-dasharray:none;stroke-opacity:1" />
    </g>
  </g>
</svg>
